<svg width="15" height="15" viewBox="0 0 15 15" fill="none" xmlns="http://www.w3.org/2000/svg">
<g clip-path="url(#clip0_1_40444)">
<path d="M13.9365 4.81162C13.7561 4.68311 13.5236 4.65029 13.3131 4.72686L10.6443 5.67295V5.01123C10.6443 4.03232 9.84591 3.23389 8.867 3.23389H2.5506C1.57169 3.23389 0.773254 4.03232 0.773254 5.01123V10.7534C0.773254 11.7323 1.57169 12.5308 2.5506 12.5308H8.867C9.84591 12.5308 10.6443 11.7323 10.6443 10.7534V10.1081L13.3131 11.0569C13.3869 11.0843 13.4635 11.0952 13.5428 11.0952C13.6822 11.0952 13.819 11.0515 13.9365 10.9694C14.117 10.8409 14.2264 10.6331 14.2264 10.4116V5.37217C14.2264 5.14795 14.1197 4.94014 13.9365 4.81162ZM9.27716 10.7534C9.27716 10.9804 9.09396 11.1636 8.867 11.1636H2.5506C2.32364 11.1636 2.14044 10.9804 2.14044 10.7534V5.01123C2.14044 4.78428 2.32364 4.60107 2.5506 4.60107H8.867C9.09396 4.60107 9.27716 4.78428 9.27716 5.01123V10.7534ZM12.8592 9.44365L10.6826 8.66982C10.669 8.66436 10.658 8.66162 10.6443 8.65889V7.12217C10.658 7.11943 10.669 7.11396 10.6826 7.11123L12.8592 6.3374V9.44365Z" fill="#374957"/>
</g>
<defs>
<clipPath id="clip0_1_40444">
<rect width="14" height="14" fill="white" transform="translate(0.5 0.882324)"/>
</clipPath>
</defs>
</svg>
