<svg width="17" height="16" viewBox="0 0 17 16" fill="none" xmlns="http://www.w3.org/2000/svg">
<g clip-path="url(#clip0_2_44304)">
<path d="M15.8561 4.49062C15.6498 4.34375 15.3842 4.30625 15.1436 4.39375L12.0936 5.475V4.71875C12.0936 3.6 11.1811 2.6875 10.0623 2.6875H2.84358C1.72483 2.6875 0.812332 3.6 0.812332 4.71875V11.2812C0.812332 12.4 1.72483 13.3125 2.84358 13.3125H10.0623C11.1811 13.3125 12.0936 12.4 12.0936 11.2812V10.5437L15.1436 11.6281C15.228 11.6594 15.3155 11.6719 15.4061 11.6719C15.5655 11.6719 15.7217 11.6219 15.8561 11.5281C16.0623 11.3812 16.1873 11.1438 16.1873 10.8906V5.13125C16.1873 4.875 16.0655 4.6375 15.8561 4.49062ZM10.5311 11.2812C10.5311 11.5406 10.3217 11.75 10.0623 11.75H2.84358C2.58421 11.75 2.37483 11.5406 2.37483 11.2812V4.71875C2.37483 4.45937 2.58421 4.25 2.84358 4.25H10.0623C10.3217 4.25 10.5311 4.45937 10.5311 4.71875V11.2812ZM14.6248 9.78438L12.1373 8.9C12.1217 8.89375 12.1092 8.89062 12.0936 8.8875V7.13125C12.1092 7.12812 12.1217 7.12188 12.1373 7.11875L14.6248 6.23438V9.78438Z" fill="#EFF3F6"/>
</g>
<defs>
<clipPath id="clip0_2_44304">
<rect width="16" height="16" fill="white" transform="translate(0.5)"/>
</clipPath>
</defs>
</svg>
