<svg width="17" height="16" viewBox="0 0 17 16" fill="none" xmlns="http://www.w3.org/2000/svg">
<g clip-path="url(#clip0_1_14787)">
<path d="M15.8561 4.49062C15.6498 4.34375 15.3842 4.30625 15.1436 4.39375L12.0936 5.475V4.71875C12.0936 3.6 11.1811 2.6875 10.0623 2.6875H2.84357C1.72482 2.6875 0.812317 3.6 0.812317 4.71875V11.2812C0.812317 12.4 1.72482 13.3125 2.84357 13.3125H10.0623C11.1811 13.3125 12.0936 12.4 12.0936 11.2812V10.5437L15.1436 11.6281C15.2279 11.6594 15.3154 11.6719 15.4061 11.6719C15.5654 11.6719 15.7217 11.6219 15.8561 11.5281C16.0623 11.3812 16.1873 11.1438 16.1873 10.8906V5.13125C16.1873 4.875 16.0654 4.6375 15.8561 4.49062ZM10.5311 11.2812C10.5311 11.5406 10.3217 11.75 10.0623 11.75H2.84357C2.58419 11.75 2.37482 11.5406 2.37482 11.2812V4.71875C2.37482 4.45937 2.58419 4.25 2.84357 4.25H10.0623C10.3217 4.25 10.5311 4.45937 10.5311 4.71875V11.2812ZM14.6248 9.78438L12.1373 8.9C12.1217 8.89375 12.1092 8.89062 12.0936 8.8875V7.13125C12.1092 7.12812 12.1217 7.12188 12.1373 7.11875L14.6248 6.23438V9.78438Z" fill="white"/>
</g>
<defs>
<clipPath id="clip0_1_14787">
<rect width="16" height="16" fill="white" transform="translate(0.5)"/>
</clipPath>
</defs>
</svg>
