<svg width="51" height="45" viewBox="0 0 51 45" fill="none" xmlns="http://www.w3.org/2000/svg">
<path d="M0.983046 2.69243C0.526516 1.96079 0.749538 0.997587 1.48118 0.541057C2.21282 0.0845273 3.17602 0.307549 3.63255 1.03919L0.983046 2.69243ZM2.30798 1.8661L0.984155 2.69421L0.983224 2.69272L2.30798 1.8661ZM50.0727 33.721C50.5987 34.4043 50.4712 35.3848 49.7878 35.9108L38.6514 44.4828C37.968 45.0089 36.9875 44.8813 36.4615 44.1979C35.9355 43.5145 36.0631 42.5341 36.7465 42.0081L46.6455 34.3885L39.0259 24.4894C38.4999 23.806 38.6275 22.8256 39.3108 22.2996C39.9942 21.7736 40.9747 21.9011 41.5007 22.5845L50.0727 33.721ZM3.63255 1.03919L3.63273 1.03948L0.983224 2.69272L0.983046 2.69243L3.63255 1.03919ZM3.6318 1.03798C8.20314 8.34574 12.6408 15.4191 19.384 21.1602C26.0825 26.8634 35.1456 31.3175 49.0368 33.125L48.6339 36.2219C34.216 34.3459 24.57 29.6772 17.3594 23.5381C10.1934 17.4369 5.52198 9.94838 0.984156 2.69421L3.6318 1.03798Z" fill="url(#paint0_linear_1_41831)"/>
<defs>
<linearGradient id="paint0_linear_1_41831" x1="20.3409" y1="24.1262" x2="5.74709" y2="10.3975" gradientUnits="userSpaceOnUse">
<stop stop-color="white"/>
<stop offset="1" stop-color="white" stop-opacity="0"/>
</linearGradient>
</defs>
</svg>
