<svg width="21" height="20" viewBox="0 0 21 20" fill="none" xmlns="http://www.w3.org/2000/svg">
<path fill-rule="evenodd" clip-rule="evenodd" d="M8.45422 12.6978V6.94201L13.6814 9.81993L8.45422 12.6978ZM20.0821 5.12969C19.8522 4.291 19.1745 3.63125 18.3138 3.40734C16.7543 3.00049 10.4995 3.00049 10.4995 3.00049C10.4995 3.00049 4.24569 3.00049 2.68623 3.40734C1.82554 3.63125 1.14777 4.292 0.917854 5.12969C0.5 6.64912 0.5 9.81893 0.5 9.81893C0.5 9.81893 0.5 12.9887 0.917854 14.5082C1.14777 15.3469 1.82554 16.0066 2.68623 16.2305C4.24569 16.6374 10.4995 16.6374 10.4995 16.6374C10.4995 16.6374 16.7533 16.6374 18.3138 16.2305C19.1745 16.0066 19.8522 15.3459 20.0821 14.5082C20.5 12.9887 20.5 9.81893 20.5 9.81893C20.5 9.81893 20.5 6.64912 20.0821 5.12969Z" fill="#5B5B5B"/>
</svg>
