<svg width="21" height="20" viewBox="0 0 21 20" fill="none" xmlns="http://www.w3.org/2000/svg">
<g clip-path="url(#clip0_1_14211)">
<path fill-rule="evenodd" clip-rule="evenodd" d="M10.5 4.94531C7.71096 4.94531 5.44533 7.20703 5.44533 10C5.44533 12.793 7.71096 15.0547 10.5 15.0547C13.2891 15.0547 15.5547 12.7891 15.5547 10C15.5547 7.21094 13.2891 4.94531 10.5 4.94531ZM10.5 13.2812C8.68752 13.2812 7.21877 11.8125 7.21877 10C7.21877 8.1875 8.68752 6.71875 10.5 6.71875C12.3125 6.71875 13.7813 8.1875 13.7813 10C13.7813 11.8125 12.3125 13.2812 10.5 13.2812Z" fill="#5B5B5B"/>
<path d="M16.9336 4.74622C16.9336 5.39774 16.4055 5.9259 15.754 5.9259C15.1024 5.9259 14.5743 5.39774 14.5743 4.74622C14.5743 4.09469 15.1024 3.56653 15.754 3.56653C16.4055 3.56653 16.9336 4.09469 16.9336 4.74622Z" fill="#5B5B5B"/>
<path fill-rule="evenodd" clip-rule="evenodd" d="M10.4995 0.160156C7.82764 0.160156 7.4917 0.171875 6.44092 0.21875C5.39404 0.265625 4.6792 0.433594 4.0542 0.675781C3.40576 0.925781 2.85889 1.26562 2.31201 1.8125C1.76514 2.35937 1.4292 2.91016 1.17529 3.55469C0.933105 4.17969 0.765137 4.89453 0.718262 5.94531C0.671387 6.99219 0.659668 7.32812 0.659668 10C0.659668 12.6719 0.671387 13.0078 0.718262 14.0586C0.765137 15.1055 0.933105 15.8203 1.17529 16.4492C1.42529 17.0977 1.76514 17.6445 2.31201 18.1914C2.85889 18.7383 3.40967 19.0742 4.0542 19.3281C4.6792 19.5703 5.39404 19.7383 6.44483 19.7852C7.49561 19.832 7.82764 19.8437 10.5034 19.8437C13.1792 19.8437 13.5112 19.832 14.562 19.7852C15.6089 19.7383 16.3237 19.5703 16.9526 19.3281C17.6011 19.0781 18.148 18.7383 18.6948 18.1914C19.2417 17.6445 19.5776 17.0937 19.8315 16.4492C20.0737 15.8242 20.2417 15.1094 20.2886 14.0586C20.3355 13.0078 20.3472 12.6758 20.3472 10C20.3472 7.32422 20.3355 6.99219 20.2886 5.9414C20.2417 4.89453 20.0737 4.17969 19.8315 3.55078C19.5815 2.90234 19.2417 2.35547 18.6948 1.80859C18.148 1.26172 17.5972 0.925781 16.9526 0.671875C16.3276 0.429687 15.6128 0.261719 14.562 0.214844C13.5073 0.171875 13.1714 0.160156 10.4995 0.160156ZM10.4995 1.93359C13.1284 1.93359 13.437 1.94531 14.4761 1.99219C15.437 2.03516 15.9565 2.19531 16.3042 2.33203C16.7651 2.51172 17.0933 2.72266 17.437 3.06641C17.7808 3.41016 17.9956 3.73828 18.1714 4.19922C18.3042 4.54687 18.4683 5.0664 18.5112 6.02734C18.5581 7.0664 18.5698 7.375 18.5698 10.0039C18.5698 12.6328 18.5581 12.9414 18.5112 13.9805C18.4683 14.9414 18.3081 15.4609 18.1714 15.8086C17.9917 16.2695 17.7808 16.5977 17.437 16.9414C17.0933 17.2852 16.7651 17.5 16.3042 17.6758C15.9565 17.8086 15.437 17.9727 14.4761 18.0156C13.437 18.0625 13.1284 18.0742 10.4995 18.0742C7.87061 18.0742 7.56201 18.0625 6.52295 18.0156C5.56201 17.9727 5.04248 17.8125 4.69483 17.6758C4.23389 17.4961 3.90576 17.2852 3.56201 16.9414C3.21826 16.5977 3.00342 16.2695 2.82764 15.8086C2.69482 15.4609 2.53076 14.9414 2.48779 13.9805C2.44092 12.9414 2.4292 12.6328 2.4292 10.0039C2.4292 7.375 2.44092 7.0664 2.48779 6.02734C2.53076 5.0664 2.69092 4.54687 2.82764 4.19922C3.00732 3.73828 3.21826 3.41016 3.56201 3.06641C3.90576 2.72266 4.23389 2.50781 4.69483 2.33203C5.04248 2.19922 5.56201 2.03516 6.52295 1.99219C7.56201 1.94141 7.87061 1.93359 10.4995 1.93359Z" fill="#5B5B5B"/>
</g>
<defs>
<clipPath id="clip0_1_14211">
<rect width="20" height="20" fill="white" transform="translate(0.5)"/>
</clipPath>
</defs>
</svg>
