<svg width="21" height="20" viewBox="0 0 21 20" fill="none" xmlns="http://www.w3.org/2000/svg">
<path d="M10.4945 0C4.97546 0 0.500977 4.47368 0.500977 9.99178C0.500977 14.227 3.13302 17.8454 6.85079 19.301C6.76031 18.5115 6.68629 17.2944 6.88369 16.4309C7.06464 15.6497 8.05166 11.4638 8.05166 11.4638C8.05166 11.4638 7.75556 10.8635 7.75556 9.98355C7.75556 8.59375 8.56162 7.55757 9.56509 7.55757C10.4205 7.55757 10.8318 8.19901 10.8318 8.96382C10.8318 9.81908 10.2889 11.102 10.001 12.2944C9.76249 13.2895 10.5028 14.1036 11.4815 14.1036C13.2582 14.1036 14.6236 12.2286 14.6236 9.53125C14.6236 7.13816 12.9045 5.46875 10.4452 5.46875C7.59928 5.46875 5.92957 7.59868 5.92957 9.80263C5.92957 10.6579 6.25858 11.5789 6.66984 12.0806C6.75209 12.1793 6.76031 12.2697 6.73564 12.3684C6.66161 12.6809 6.48888 13.3635 6.45598 13.5033C6.41486 13.6842 6.30793 13.7253 6.11875 13.6349C4.86853 13.051 4.08714 11.2336 4.08714 9.76151C4.08714 6.61184 6.37373 3.71711 10.6919 3.71711C14.1547 3.71711 16.8526 6.18421 16.8526 9.49013C16.8526 12.9359 14.6811 15.7072 11.6707 15.7072C10.659 15.7072 9.70492 15.1809 9.38414 14.5559C9.38414 14.5559 8.8824 16.4638 8.75902 16.9326C8.53695 17.8043 7.92828 18.8898 7.51703 19.5559C8.45469 19.8438 9.44171 20 10.4781 20C15.9972 20 20.4716 15.5263 20.4716 10.0082C20.4881 4.47368 16.0136 0 10.4945 0Z" fill="#5B5B5B"/>
</svg>
