<svg width="36" height="36" viewBox="0 0 36 36" fill="none" xmlns="http://www.w3.org/2000/svg">
<mask id="path-1-inside-1_1_14195" fill="white">
<path d="M0.500061 0.5H35.5001V35.5H0.500061V0.5Z"/>
</mask>
<path d="M1.50006 35.5V0.5H-0.499939V35.5H1.50006Z" fill="#C8C8C8" mask="url(#path-1-inside-1_1_14195)"/>
<path d="M18.5001 19.1891L15.2552 15.9442C14.9107 15.5997 14.3552 15.5997 14.0107 15.9442C13.6661 16.2887 13.6661 16.8442 14.0107 17.1887L17.8778 21.0559C18.0501 21.2282 18.2751 21.3126 18.5001 21.3126C18.7251 21.3126 18.9501 21.2282 19.1224 21.0559L22.9896 17.1887C23.3341 16.8442 23.3341 16.2887 22.9896 15.9442C22.645 15.5997 22.0896 15.5997 21.745 15.9442L18.5001 19.1891Z" fill="#121212"/>
</svg>
