<svg width="17" height="16" viewBox="0 0 17 16" fill="none" xmlns="http://www.w3.org/2000/svg">
<path fill-rule="evenodd" clip-rule="evenodd" d="M16.5 5.51075C16.5 3.15056 14.625 0.82959 11.8619 0.82959C10.6461 0.82959 9.48722 1.25156 8.59909 2.07068C8.56562 2.10156 8.53259 2.1329 8.50003 2.16471C8.46747 2.13293 8.43443 2.10156 8.40097 2.07068C7.51284 1.25156 6.354 0.82959 5.13818 0.82959C2.37503 0.82959 0.500092 3.15056 0.500092 5.51075C0.500092 6.77815 0.983435 7.96962 1.87956 8.86575L7.06284 14.0504C7.44647 14.4342 7.95659 14.6455 8.49922 14.6455C8.49912 14.6455 8.49928 14.6455 8.49922 14.6455C8.49943 14.6455 8.49984 14.6455 8.50006 14.6455C8.50028 14.6455 8.50053 14.6455 8.50075 14.6455C8.50068 14.6455 8.50081 14.6455 8.50075 14.6455C9.04337 14.6455 9.55365 14.4341 9.93728 14.0504L15.1206 8.86565C16.0167 7.96956 16.5 6.77812 16.5 5.51075ZM14.0157 7.76087C14.0157 7.76087 14.0156 7.7609 14.0157 7.76087L8.83222 12.9457C8.74368 13.0342 8.62597 13.083 8.50075 13.083C8.5005 13.083 8.50025 13.083 8.50003 13.083C8.49981 13.083 8.49956 13.083 8.49934 13.083C8.37412 13.083 8.25637 13.0342 8.16784 12.9457L2.9845 7.76096C2.98453 7.76096 2.98447 7.76093 2.9845 7.76096C2.38562 7.16209 2.06259 6.36581 2.06259 5.51881C2.06259 3.81721 3.45837 2.38612 5.21093 2.38612C5.97437 2.38612 6.73456 2.66746 7.34168 3.21924C7.8334 3.66615 7.8985 4.16787 8.50006 4.16787C9.10162 4.16787 9.16671 3.66615 9.65843 3.21924C10.2655 2.66743 11.0257 2.38612 11.7892 2.38612C13.5417 2.38612 14.9375 3.81721 14.9375 5.51881C14.9375 6.36581 14.6145 7.16202 14.0157 7.76087Z" fill="white"/>
</svg>
