<svg width="19" height="18" viewBox="0 0 19 18" fill="none" xmlns="http://www.w3.org/2000/svg">
<path fill-rule="evenodd" clip-rule="evenodd" d="M18.4999 6.19953C18.4999 3.54432 16.3906 0.933228 13.2821 0.933228C11.9143 0.933228 10.6106 1.40794 9.61147 2.32946C9.57381 2.36419 9.53665 2.39945 9.50002 2.43524C9.46339 2.39949 9.42623 2.36419 9.38858 2.32946C8.38943 1.40794 7.08574 0.933228 5.71795 0.933228C2.6094 0.933228 0.500092 3.54432 0.500092 6.19953C0.500092 7.62536 1.04385 8.96576 2.05199 9.9739L7.88319 15.8066C8.31476 16.2384 8.88865 16.4761 9.49911 16.4762C9.499 16.4762 9.49918 16.4762 9.49911 16.4762C9.49935 16.4762 9.49981 16.4761 9.50006 16.4761C9.5003 16.4761 9.50058 16.4762 9.50083 16.4762C9.50076 16.4762 9.5009 16.4762 9.50083 16.4762C10.1113 16.4761 10.6853 16.2383 11.1169 15.8066L16.9482 9.9738C17.9563 8.96569 18.4999 7.62533 18.4999 6.19953ZM15.7051 8.73092C15.7051 8.73092 15.7051 8.73095 15.7051 8.73092L9.87373 14.5638C9.77413 14.6635 9.6417 14.7183 9.50083 14.7183C9.50055 14.7183 9.50027 14.7183 9.50002 14.7183C9.49977 14.7183 9.49949 14.7183 9.49925 14.7183C9.35838 14.7183 9.22591 14.6635 9.12631 14.5638L3.29505 8.73102C3.29508 8.73102 3.29501 8.73099 3.29505 8.73102C2.62131 8.05729 2.2579 7.16147 2.2579 6.2086C2.2579 4.2943 3.82816 2.68432 5.79979 2.68432C6.65866 2.68432 7.51387 3.00083 8.19688 3.62159C8.75007 4.12436 8.8233 4.68879 9.50006 4.68879C10.1768 4.68879 10.25 4.12436 10.8032 3.62159C11.4862 3.0008 12.3414 2.68432 13.2003 2.68432C15.172 2.68432 16.7422 4.2943 16.7422 6.2086C16.7422 7.16147 16.3788 8.05722 15.7051 8.73092Z" fill="white"/>
</svg>
