<svg width="16" height="16" viewBox="0 0 16 16" fill="none" xmlns="http://www.w3.org/2000/svg">
<path fill-rule="evenodd" clip-rule="evenodd" d="M16 5.51075C16 3.15056 14.125 0.82959 11.3619 0.82959C10.146 0.82959 8.9872 1.25156 8.09908 2.07068C8.06561 2.10156 8.03258 2.1329 8.00001 2.16471C7.96745 2.13293 7.93442 2.10156 7.90095 2.07068C7.01283 1.25156 5.85398 0.82959 4.63817 0.82959C1.87501 0.82959 7.62939e-05 3.15056 7.62939e-05 5.51075C7.62939e-05 6.77815 0.48342 7.96962 1.37954 8.86575L6.56283 14.0504C6.94645 14.4342 7.45658 14.6455 7.9992 14.6455C7.99911 14.6455 7.99926 14.6455 7.9992 14.6455C7.99942 14.6455 7.99983 14.6455 8.00004 14.6455C8.00026 14.6455 8.00051 14.6455 8.00073 14.6455C8.00067 14.6455 8.00079 14.6455 8.00073 14.6455C8.54336 14.6455 9.05364 14.4341 9.43726 14.0504L14.6206 8.86565C15.5167 7.96956 16 6.77812 16 5.51075ZM13.5156 7.76087C13.5157 7.76087 13.5156 7.7609 13.5156 7.76087L8.3322 12.9457C8.24367 13.0342 8.12595 13.083 8.00073 13.083C8.00048 13.083 8.00023 13.083 8.00001 13.083C7.99979 13.083 7.99954 13.083 7.99932 13.083C7.87411 13.083 7.75636 13.0342 7.66783 12.9457L2.48448 7.76096C2.48451 7.76096 2.48445 7.76093 2.48448 7.76096C1.88561 7.16209 1.56258 6.36581 1.56258 5.51881C1.56258 3.81721 2.95836 2.38612 4.71092 2.38612C5.47436 2.38612 6.23454 2.66746 6.84167 3.21924C7.33339 3.66615 7.39848 4.16787 8.00004 4.16787C8.60161 4.16787 8.6667 3.66615 9.15842 3.21924C9.76551 2.66743 10.5257 2.38612 11.2892 2.38612C13.0417 2.38612 14.4375 3.81721 14.4375 5.51881C14.4375 6.36581 14.1145 7.16202 13.5156 7.76087Z" fill="#121212"/>
</svg>
