<svg width="13" height="12" viewBox="0 0 13 12" fill="none" xmlns="http://www.w3.org/2000/svg">
<g clip-path="url(#clip0_1_41849)">
<path d="M12.5 2.3408C12.5 1.04992 11.4501 0 10.1592 0C9.53371 0 8.94594 0.243526 8.50394 0.685549L6.84372 2.34577C6.56082 2.19731 6.20767 2.23183 5.96977 2.46973C5.73187 2.70763 5.69736 3.0608 5.84581 3.34368L2.01945 7.17001C1.56974 7.61972 1.23979 8.18037 1.06547 8.79122L0.528989 10.6688C0.453915 10.9306 0.527147 11.2126 0.719796 11.4052L1.0948 11.7802C1.23726 11.9231 1.42878 12 1.62507 12C1.69393 12 1.76313 11.9904 1.83125 11.971L3.70844 11.4345C4.31965 11.2602 4.8803 10.9302 5.33002 10.4805L9.15635 6.65421C9.26503 6.71126 9.3803 6.74997 9.50003 6.74997C9.69192 6.74997 9.88381 6.67674 10.0303 6.53025C10.2682 6.29235 10.3027 5.93919 10.1543 5.6563L11.8145 3.99609C12.2565 3.55406 12.5 2.96629 12.5 2.3408ZM4.26946 9.41999C3.99958 9.68988 3.66339 9.88764 3.29644 9.99239L2.19196 10.3081L2.50764 9.20322C2.61236 8.83664 2.81012 8.50047 3.08003 8.23056L6.87507 4.43553L8.06452 5.62498C8.0645 5.62498 4.26946 9.41999 4.26946 9.41999Z" fill="#424242"/>
</g>
<defs>
<clipPath id="clip0_1_41849">
<rect width="12" height="12" fill="white" transform="translate(0.5)"/>
</clipPath>
</defs>
</svg>
