<svg width="11" height="11" viewBox="0 0 11 11" fill="none" xmlns="http://www.w3.org/2000/svg">
<path fill-rule="evenodd" clip-rule="evenodd" d="M5.90201 8.34777L3.52872 2.45051C3.43738 2.22361 3.21734 2.07495 2.97275 2.07495C2.72815 2.07495 2.50809 2.22361 2.41677 2.45051L0.0434858 8.34777C-0.080069 8.65485 0.068657 9.00394 0.375698 9.1275C0.682763 9.25108 1.03185 9.1023 1.15543 8.79529L1.63138 7.61262H4.31409L4.79004 8.79529C4.91362 9.10233 5.26273 9.2511 5.56977 9.1275C5.87684 9.00394 6.02556 8.65485 5.90201 8.34777ZM2.11375 6.41399L2.97274 4.27954L3.83175 6.41399H2.11375Z" fill="#5B5B5B"/>
<path fill-rule="evenodd" clip-rule="evenodd" d="M9.87685 4.85577C9.64226 4.85577 9.43928 4.99064 9.34087 5.187C9.06869 5.05194 8.76239 4.97564 8.4385 4.97564C7.31493 4.97564 6.40083 5.88974 6.40083 7.01331C6.40083 8.13688 7.31493 9.05098 8.4385 9.05098C8.76239 9.05098 9.06867 8.97465 9.34087 8.83961C9.43926 9.03597 9.64224 9.17084 9.87685 9.17084C10.2079 9.17084 10.4762 8.90254 10.4762 8.57153V5.45509C10.4762 5.12408 10.2078 4.85577 9.87685 4.85577ZM8.43849 7.85235C7.97584 7.85235 7.59945 7.47595 7.59945 7.01331C7.59945 6.55066 7.97584 6.17427 8.43849 6.17427C8.90113 6.17427 9.27753 6.55066 9.27753 7.01331C9.27753 7.47595 8.90111 7.85235 8.43849 7.85235Z" fill="#5B5B5B"/>
</svg>
