<svg width="11" height="11" viewBox="0 0 11 11" fill="none" xmlns="http://www.w3.org/2000/svg">
<path fill-rule="evenodd" clip-rule="evenodd" d="M10.0239 1.25336L9.7039 0.933336C9.16806 0.397497 8.24198 0.315081 7.62372 0.933336L6.66386 1.8932C6.66392 1.89314 6.66379 1.89327 6.66386 1.8932C6.66379 1.89327 6.66349 1.89357 6.66343 1.89363L0.165692 8.39137C0.0596056 8.49748 0 8.64135 0 8.79141V10.3915C0 10.704 0.25329 10.9573 0.565733 10.9573H2.16585C2.31588 10.9573 2.45978 10.8977 2.56589 10.7916L10.0239 3.33356C10.6507 2.70679 10.5598 1.7892 10.0239 1.25336ZM1.93151 9.82579H1.13145V9.02574L7.06366 3.09353L7.86372 3.89359L1.93151 9.82579ZM9.22385 2.53348L8.66379 3.09353L7.86373 2.29347L8.42379 1.73342C8.5442 1.61301 8.75834 1.58793 8.90382 1.73342L9.22385 2.05344C9.3453 2.17487 9.35982 2.3975 9.22385 2.53348Z" fill="#5B5B5B"/>
</svg>
