<svg width="15" height="14" viewBox="0 0 15 14" fill="none" xmlns="http://www.w3.org/2000/svg">
<g clip-path="url(#clip0_1_41812)">
<path d="M14.2271 0.309171C13.9883 0.113092 13.69 0.00388109 13.381 -0.000589511C13.072 -0.00506011 12.7707 0.0954745 12.5263 0.284562C11.4216 1.11855 10.1392 2.32167 8.9142 3.66972C7.82592 4.86465 6.88803 6.05683 6.23725 7.06582H6.14155C5.14623 7.06582 4.30131 7.46777 3.62592 8.25801C3.09545 8.87871 2.76186 9.63887 2.5185 10.1939C2.41459 10.4291 2.31889 10.6506 2.23959 10.7791C1.731 11.6322 1.2935 11.8209 1.24975 11.8373C1.12044 11.8742 1.0048 11.9482 0.917196 12.0502C0.829595 12.1522 0.773888 12.2777 0.756995 12.4111C0.740102 12.5445 0.762766 12.6799 0.822173 12.8006C0.88158 12.9212 0.975113 13.0217 1.09116 13.0897C1.15678 13.1252 2.7017 14.0002 5.31576 14.0002H5.86264C6.77592 14.0002 7.70834 13.642 8.42201 13.0158C9.18764 12.3432 9.60873 11.46 9.60873 10.533C9.60833 10.3035 9.58544 10.0745 9.54037 9.84942C11.4271 7.57442 13.5736 4.24941 14.6208 1.96347C14.8888 1.37831 14.7302 0.71386 14.2271 0.309171ZM7.51967 11.9877C7.05209 12.3979 6.4478 12.633 5.86264 12.633H5.31576C4.2685 12.633 3.42358 12.4717 2.82202 12.3022C3.04451 12.0475 3.24313 11.7729 3.41537 11.4818C3.53569 11.2795 3.64506 11.0307 3.77084 10.7408C4.32592 9.47754 4.88647 8.43301 6.14155 8.43301C6.69828 8.43373 7.232 8.65522 7.62567 9.04889C8.01934 9.44256 8.24082 9.97628 8.24155 10.533C8.24155 11.0607 7.98451 11.5775 7.51967 11.9877ZM7.65092 7.41035C7.90248 7.04395 8.18959 6.6584 8.49858 6.26465C8.77366 6.33222 9.03224 6.45475 9.25873 6.62486C9.48523 6.79497 9.67498 7.00914 9.81655 7.25449C9.51303 7.67285 9.20951 8.07481 8.9142 8.45215C8.58103 8.01024 8.14818 7.65328 7.65092 7.41035V7.41035ZM13.3767 1.39472C12.7751 2.70722 11.758 4.43261 10.6478 6.07051C10.3141 5.67658 9.89773 5.36103 9.42826 5.14629C10.6724 3.71621 12.1189 2.308 13.3494 1.37558L13.3603 1.36738C13.3687 1.37125 13.3761 1.37684 13.3822 1.38378C13.3794 1.38652 13.3794 1.38925 13.3767 1.39472Z" fill="#5B5B5B"/>
</g>
<defs>
<clipPath id="clip0_1_41812">
<rect width="14" height="14" fill="white" transform="translate(0.75)"/>
</clipPath>
</defs>
</svg>
