<svg width="15" height="15" viewBox="0 0 15 15" fill="none" xmlns="http://www.w3.org/2000/svg">
<path fill-rule="evenodd" clip-rule="evenodd" d="M12.6504 3.00504H6.14135C5.94816 2.19022 5.2145 1.58228 4.34146 1.58228H2.34959C1.32973 1.58228 0.5 2.412 0.5 3.43187V12.0254C0.5 13.0452 1.32973 13.875 2.34959 13.875H12.6504C13.6703 13.875 14.5 13.0452 14.5 12.0254V4.85463C14.5 3.83477 13.6703 3.00504 12.6504 3.00504ZM12.6504 12.4522H2.34959C2.11423 12.4522 1.92276 12.2607 1.92276 12.0254V6.98878H13.0772V12.0254C13.0772 12.2607 12.8858 12.4522 12.6504 12.4522ZM2.34959 3.00504H4.34146C4.57681 3.00504 4.76829 3.19652 4.76829 3.43187V3.71642C4.76829 4.10931 5.08679 4.42781 5.47967 4.42781H12.6504C12.8858 4.42781 13.0772 4.61928 13.0772 4.85463V5.56602H1.92276V3.43187C1.92276 3.19652 2.11423 3.00504 2.34959 3.00504Z" fill="#121212"/>
</svg>
