<svg width="76" height="27" viewBox="0 0 76 27" fill="none" xmlns="http://www.w3.org/2000/svg">
<rect x="0.5" width="75" height="27" rx="3.07368" fill="#9C9C9C"/>
<path d="M21.7496 12.0486C21.6908 11.8616 21.6095 11.6943 21.5059 11.5465C21.4046 11.3965 21.2821 11.2684 21.1384 11.1622C20.9971 11.056 20.8346 10.9764 20.6509 10.9233C20.4672 10.8679 20.267 10.8402 20.0503 10.8402C19.6616 10.8402 19.3154 10.936 19.0116 11.1276C18.7077 11.3192 18.4686 11.6008 18.2944 11.9724C18.1224 12.3417 18.0364 12.7918 18.0364 13.3227C18.0364 13.8582 18.1224 14.3118 18.2944 14.6834C18.4663 15.0551 18.7054 15.3378 19.0116 15.5317C19.3178 15.7233 19.6734 15.8191 20.0785 15.8191C20.446 15.8191 20.7639 15.7498 21.0324 15.6114C21.3033 15.4729 21.5118 15.2767 21.6578 15.0228C21.8038 14.7665 21.8768 14.4665 21.8768 14.1225L22.1736 14.1675H20.2093V13.1635H23.1452V14.0152C23.1452 14.6223 23.0133 15.1474 22.7495 15.5906C22.4857 16.0338 22.123 16.3754 21.6613 16.6154C21.1997 16.8532 20.6697 16.9721 20.0715 16.9721C19.4049 16.9721 18.8196 16.8255 18.3156 16.5323C17.8139 16.2369 17.4217 15.8179 17.1391 15.2755C16.8588 14.7308 16.7186 14.0845 16.7186 13.3366C16.7186 12.7641 16.8011 12.2529 16.9659 11.8028C17.1332 11.3527 17.3663 10.9706 17.6655 10.6567C17.9646 10.3405 18.3156 10.1004 18.7183 9.93655C19.1211 9.77035 19.5592 9.68726 20.0326 9.68726C20.433 9.68726 20.8063 9.74496 21.1526 9.86037C21.4988 9.97348 21.8062 10.1351 22.0747 10.3451C22.3455 10.5552 22.5681 10.8044 22.7424 11.093C22.9167 11.3815 23.031 11.7 23.0851 12.0486H21.7496Z" fill="white"/>
<path d="M26.7586 16.979C26.2145 16.979 25.7446 16.8682 25.3489 16.6466C24.9556 16.4227 24.6529 16.1065 24.4409 15.6979C24.2289 15.287 24.123 14.8035 24.123 14.2472C24.123 13.7001 24.2289 13.22 24.4409 12.8068C24.6553 12.3914 24.9544 12.0682 25.3383 11.8374C25.7222 11.6042 26.1733 11.4877 26.6915 11.4877C27.0259 11.4877 27.3415 11.5408 27.6383 11.647C27.9374 11.7508 28.2012 11.9124 28.4297 12.1317C28.6605 12.351 28.8419 12.6303 28.9738 12.9696C29.1057 13.3066 29.1716 13.7082 29.1716 14.1745V14.5588H24.7236V13.714H27.9457C27.9433 13.4739 27.8903 13.2604 27.7867 13.0734C27.6831 12.8842 27.5382 12.7353 27.3521 12.6268C27.1684 12.5183 26.9541 12.4641 26.7091 12.4641C26.4477 12.4641 26.218 12.5264 26.0202 12.651C25.8223 12.7734 25.6681 12.9349 25.5574 13.1358C25.449 13.3343 25.3937 13.5524 25.3913 13.7902V14.5276C25.3913 14.8369 25.449 15.1024 25.5644 15.324C25.6798 15.5433 25.8412 15.7118 26.0484 15.8295C26.2557 15.9449 26.4983 16.0026 26.7762 16.0026C26.9623 16.0026 27.1307 15.9772 27.2815 15.9264C27.4322 15.8733 27.5629 15.796 27.6736 15.6944C27.7843 15.5929 27.868 15.4671 27.9245 15.3171L29.1186 15.4486C29.0433 15.7579 28.8996 16.028 28.6876 16.2588C28.478 16.4873 28.2095 16.6651 27.8821 16.792C27.5547 16.9167 27.1802 16.979 26.7586 16.979Z" fill="white"/>
<path d="M31.5326 13.759V16.8751H30.2536V11.5569H31.476V12.4606H31.5396C31.6645 12.1628 31.8635 11.9262 32.1367 11.7508C32.4123 11.5754 32.7526 11.4877 33.1578 11.4877C33.5323 11.4877 33.8585 11.5662 34.1364 11.7231C34.4167 11.8801 34.6334 12.1074 34.7865 12.4052C34.9419 12.703 35.0185 13.0642 35.0161 13.4889V16.8751H33.7372V13.6828C33.7372 13.3273 33.643 13.0492 33.4545 12.8484C33.2685 12.6476 33.0106 12.5472 32.6808 12.5472C32.457 12.5472 32.258 12.5956 32.0837 12.6926C31.9118 12.7872 31.7764 12.9246 31.6774 13.1046C31.5809 13.2846 31.5326 13.5028 31.5326 13.759Z" fill="white"/>
<path d="M38.7187 16.979C38.1746 16.979 37.7048 16.8682 37.3091 16.6466C36.9157 16.4227 36.6131 16.1065 36.4011 15.6979C36.1891 15.287 36.0831 14.8035 36.0831 14.2472C36.0831 13.7001 36.1891 13.22 36.4011 12.8068C36.6154 12.3914 36.9145 12.0682 37.2985 11.8374C37.6824 11.6042 38.1334 11.4877 38.6516 11.4877C38.9861 11.4877 39.3017 11.5408 39.5985 11.647C39.8976 11.7508 40.1614 11.9124 40.3899 12.1317C40.6207 12.351 40.802 12.6303 40.9339 12.9696C41.0658 13.3066 41.1318 13.7082 41.1318 14.1745V14.5588H36.6837V13.714H39.9058C39.9035 13.4739 39.8505 13.2604 39.7468 13.0734C39.6432 12.8842 39.4984 12.7353 39.3123 12.6268C39.1286 12.5183 38.9142 12.4641 38.6693 12.4641C38.4078 12.4641 38.1782 12.5264 37.9803 12.651C37.7825 12.7734 37.6282 12.9349 37.5175 13.1358C37.4092 13.3343 37.3538 13.5524 37.3515 13.7902V14.5276C37.3515 14.8369 37.4092 15.1024 37.5246 15.324C37.64 15.5433 37.8013 15.7118 38.0086 15.8295C38.2159 15.9449 38.4585 16.0026 38.7364 16.0026C38.9225 16.0026 39.0909 15.9772 39.2416 15.9264C39.3924 15.8733 39.5231 15.796 39.6338 15.6944C39.7445 15.5929 39.8281 15.4671 39.8846 15.3171L41.0788 15.4486C41.0034 15.7579 40.8597 16.028 40.6478 16.2588C40.4381 16.4873 40.1696 16.6651 39.8422 16.792C39.5148 16.9167 39.1403 16.979 38.7187 16.979Z" fill="white"/>
<path d="M42.2138 16.8751V11.5569H43.4539V12.4433H43.5104C43.6093 12.1363 43.7789 11.8997 44.0191 11.7335C44.2617 11.565 44.5385 11.4808 44.8494 11.4808C44.9201 11.4808 44.999 11.4842 45.0861 11.4911C45.1756 11.4958 45.2498 11.5038 45.3087 11.5154V12.6683C45.2545 12.6499 45.1686 12.6337 45.0508 12.6199C44.9354 12.6037 44.8235 12.5956 44.7151 12.5956C44.482 12.5956 44.2723 12.6453 44.0863 12.7445C43.9026 12.8415 43.7577 12.9765 43.6517 13.1496C43.5457 13.3227 43.4927 13.5224 43.4927 13.7486V16.8751H42.2138Z" fill="white"/>
<path d="M47.6228 16.9824C47.2789 16.9824 46.9692 16.9224 46.6936 16.8024C46.4204 16.6801 46.2037 16.5 46.0436 16.2623C45.8858 16.0245 45.8068 15.7314 45.8068 15.3828C45.8068 15.0828 45.8634 14.8346 45.9764 14.6384C46.0895 14.4422 46.2438 14.2853 46.4393 14.1675C46.6348 14.0498 46.855 13.961 47.0999 13.9009C47.3472 13.8386 47.6028 13.7936 47.8666 13.7659C48.1846 13.7336 48.4425 13.7047 48.6403 13.6794C48.8382 13.6517 48.9819 13.6101 49.0714 13.5547C49.1632 13.497 49.2091 13.4081 49.2091 13.2881V13.2673C49.2091 13.0065 49.1302 12.8045 48.9724 12.6614C48.8146 12.5183 48.5873 12.4468 48.2906 12.4468C47.9773 12.4468 47.7288 12.5137 47.5451 12.6476C47.3637 12.7815 47.2413 12.9396 47.1777 13.1219L45.9835 12.9557C46.0777 12.6326 46.2332 12.3625 46.4499 12.1455C46.6666 11.9262 46.9315 11.7624 47.2448 11.6539C47.558 11.5431 47.9043 11.4877 48.2835 11.4877C48.5449 11.4877 48.8052 11.5177 49.0643 11.5777C49.3234 11.6377 49.5601 11.737 49.7744 11.8755C49.9888 12.0117 50.1607 12.1975 50.2903 12.4329C50.4221 12.6683 50.4881 12.9626 50.4881 13.3158V16.8751H49.2586V16.1446H49.2162C49.1385 16.2923 49.029 16.4308 48.8876 16.56C48.7487 16.687 48.5732 16.7897 48.3612 16.8682C48.1516 16.9444 47.9055 16.9824 47.6228 16.9824ZM47.9549 16.0615C48.2117 16.0615 48.4342 16.0118 48.6227 15.9126C48.8111 15.811 48.9559 15.6771 49.0572 15.5109C49.1609 15.3447 49.2127 15.1636 49.2127 14.9674V14.3407C49.1726 14.373 49.1043 14.403 49.0078 14.4307C48.9136 14.4584 48.8076 14.4826 48.6898 14.5034C48.572 14.5242 48.4554 14.5426 48.34 14.5588C48.2246 14.575 48.1245 14.5888 48.0397 14.6003C47.8489 14.6257 47.6782 14.6673 47.5274 14.725C47.3767 14.7827 47.2577 14.8635 47.1706 14.9674C47.0834 15.0689 47.0399 15.2005 47.0399 15.3621C47.0399 15.5929 47.1258 15.7672 47.2978 15.8849C47.4697 16.0026 47.6888 16.0615 47.9549 16.0615Z" fill="white"/>
<path d="M54.4839 11.5569V12.5264H51.3643V11.5569H54.4839ZM52.1345 10.2828H53.4134V15.2755C53.4134 15.444 53.4393 15.5733 53.4912 15.6633C53.5453 15.751 53.616 15.811 53.7031 15.8433C53.7903 15.8756 53.8869 15.8918 53.9929 15.8918C54.0729 15.8918 54.146 15.886 54.2119 15.8745C54.2802 15.8629 54.332 15.8526 54.3674 15.8433L54.5829 16.8232C54.5146 16.8463 54.4168 16.8716 54.2896 16.8993C54.1648 16.927 54.0117 16.9432 53.8303 16.9478C53.51 16.9571 53.2215 16.9097 52.9647 16.8059C52.708 16.6997 52.5043 16.5358 52.3535 16.3142C52.2051 16.0926 52.1321 15.8156 52.1345 15.4832V10.2828Z" fill="white"/>
<path d="M57.8977 16.979C57.3536 16.979 56.8837 16.8682 56.488 16.6466C56.0947 16.4227 55.792 16.1065 55.5801 15.6979C55.3681 15.287 55.2621 14.8035 55.2621 14.2472C55.2621 13.7001 55.3681 13.22 55.5801 12.8068C55.7944 12.3914 56.0935 12.0682 56.4774 11.8374C56.8614 11.6042 57.3124 11.4877 57.8306 11.4877C58.1651 11.4877 58.4807 11.5408 58.7774 11.647C59.0766 11.7508 59.3404 11.9124 59.5688 12.1317C59.7997 12.351 59.981 12.6303 60.1129 12.9696C60.2448 13.3066 60.3108 13.7082 60.3108 14.1745V14.5588H55.8627V13.714H59.0848C59.0825 13.4739 59.0295 13.2604 58.9258 13.0734C58.8222 12.8842 58.6773 12.7353 58.4913 12.6268C58.3076 12.5183 58.0932 12.4641 57.8483 12.4641C57.5868 12.4641 57.3572 12.5264 57.1593 12.651C56.9615 12.7734 56.8072 12.9349 56.6965 13.1358C56.5881 13.3343 56.5328 13.5524 56.5304 13.7902V14.5276C56.5304 14.8369 56.5882 15.1024 56.7036 15.324C56.819 15.5433 56.9803 15.7118 57.1876 15.8295C57.3949 15.9449 57.6375 16.0026 57.9154 16.0026C58.1015 16.0026 58.2699 15.9772 58.4206 15.9264C58.5714 15.8733 58.7021 15.796 58.8128 15.6944C58.9235 15.5929 59.0071 15.4671 59.0636 15.3171L60.2578 15.4486C60.1824 15.7579 60.0387 16.028 59.8268 16.2588C59.6171 16.4873 59.3486 16.6651 59.0212 16.792C58.6938 16.9167 58.3193 16.979 57.8977 16.979Z" fill="white"/>
</svg>
