<svg width="137" height="20" viewBox="0 0 137 20" fill="none" xmlns="http://www.w3.org/2000/svg">
<path d="M36.1421 12.6165C36.085 12.5594 36.123 12.4453 36.2182 12.4453H36.5988H36.6178C39.8718 12.1218 42.593 10.0095 42.593 6.27972C42.593 1.97906 39.1297 0 35.1525 0H16.5608C16.3134 0 16.1041 0.209323 16.1041 0.456706V19.5242C16.1041 19.7716 16.3134 19.9809 16.5608 19.9809H22.498C22.7453 19.9809 22.9547 19.7716 22.9547 19.5242V13.4348C22.9547 13.1874 23.164 12.9781 23.4114 12.9781H27.2743C27.8072 12.9781 28.321 13.2064 28.6825 13.6061L34.182 19.8097C34.2962 19.8667 34.4104 19.9048 34.5246 19.9619H42.3647C42.7643 19.9619 42.9736 19.4862 42.6882 19.2007L36.1421 12.6165ZM33.6682 8.52519H23.3923C23.145 8.52519 22.9356 8.31587 22.9356 8.06849V5.17601C22.9356 4.92863 23.145 4.7193 23.3923 4.7193H33.516C34.9622 4.7193 35.9137 5.4234 35.9137 6.56516C35.9137 7.85917 35.0384 8.52519 33.6682 8.52519Z" fill="white"/>
<path d="M111.195 0.019043H105.258C105.01 0.019043 104.801 0.228366 104.801 0.475749V13.1303C104.801 13.3777 105.01 13.587 105.258 13.587H111.195C111.442 13.587 111.652 13.3777 111.652 13.1303V0.475749C111.633 0.228366 111.442 0.019043 111.195 0.019043Z" fill="white"/>
<path d="M111.195 16.2703H105.258C105.01 16.2703 104.801 16.4796 104.801 16.727V19.5433C104.801 19.7907 105.01 20 105.258 20H111.195C111.442 20 111.652 19.7907 111.652 19.5433V16.727C111.633 16.4796 111.442 16.2703 111.195 16.2703Z" fill="white"/>
<path d="M135.629 19.3913L127.998 9.28663C127.827 9.05828 127.846 8.75381 128.036 8.54448L135.248 0.628226C135.458 0.399873 135.286 0.0383177 134.982 0.0383177H128.74C128.569 0.0383177 128.417 0.114436 128.303 0.228612L121.338 7.87845C121.319 7.89748 121.281 7.91651 121.243 7.91651H120.995C120.938 7.91651 120.881 7.85942 120.881 7.80233V0.437932C120.881 0.209578 120.691 0.0192871 120.463 0.0192871H114.754C114.525 0.0192871 114.335 0.209578 114.335 0.437932V19.5435C114.335 19.7528 114.506 19.9241 114.716 19.9241H120.482C120.691 19.9241 120.862 19.7528 120.862 19.5435V15.985C120.862 15.8328 120.919 15.6996 121.014 15.5854L123.545 12.8832C123.545 12.8832 123.564 12.8451 123.621 12.8451C123.679 12.8451 123.926 12.8451 123.964 12.8451C124.002 12.8451 124.04 12.8832 124.04 12.8832L129.14 19.6957C129.254 19.848 129.425 19.9241 129.616 19.9241H135.344C135.648 19.9241 135.8 19.6006 135.629 19.3913Z" fill="white"/>
<path d="M51.8227 4.58611H57.6267C57.8741 4.58611 58.0834 4.37679 58.0834 4.12941V0.475749C58.0834 0.228366 57.8741 0.019043 57.6267 0.019043H45.6191C45.3717 0.019043 45.1624 0.228366 45.1624 0.475749V19.5433C45.1624 19.7907 45.3717 20 45.6191 20H57.6267C57.8741 20 58.0834 19.7907 58.0834 19.5433V15.8896C58.0834 15.6422 57.8741 15.4329 57.6267 15.4329H51.7847C51.5373 15.4329 51.3279 15.2236 51.3279 14.9762V12.5975C51.3279 12.3311 51.5563 12.1027 51.8227 12.1027H57.6267C57.8741 12.1027 58.0834 11.8934 58.0834 11.646V8.0685C58.0834 7.82112 57.8741 7.6118 57.6267 7.6118H51.8227C51.5563 7.6118 51.3279 7.38344 51.3279 7.11703V5.06185C51.3279 4.79544 51.5563 4.58611 51.8227 4.58611Z" fill="white"/>
<path d="M67.4268 4.58611H73.2308C73.4781 4.58611 73.6875 4.37679 73.6875 4.12941V0.475749C73.6875 0.228366 73.4781 0.019043 73.2308 0.019043H61.2232C60.9758 0.019043 60.7665 0.228366 60.7665 0.475749V19.5433C60.7665 19.7907 60.9758 20 61.2232 20H73.2308C73.4781 20 73.6875 19.7907 73.6875 19.5433V15.8896C73.6875 15.6422 73.4781 15.4329 73.2308 15.4329H67.3887C67.1413 15.4329 66.932 15.2236 66.932 14.9762V12.5975C66.932 12.3311 67.1604 12.1027 67.4268 12.1027H73.2308C73.4781 12.1027 73.6875 11.8934 73.6875 11.646V8.0685C73.6875 7.82112 73.4781 7.6118 73.2308 7.6118H67.4268C67.1604 7.6118 66.932 7.38344 66.932 7.11703V5.06185C66.932 4.79544 67.1604 4.58611 67.4268 4.58611Z" fill="white"/>
<path d="M7.1603 4.58611H12.9643C13.2117 4.58611 13.421 4.37679 13.421 4.12941V0.475749C13.421 0.228366 13.2117 0.019043 12.9643 0.019043H0.956711C0.709328 0.019043 0.5 0.228366 0.5 0.475749V19.5433C0.5 19.7907 0.709328 20 0.956711 20H6.20883C6.45621 20 6.66554 19.7907 6.66554 19.5433V12.6165C6.66554 12.3501 6.89389 12.1218 7.1603 12.1218H12.9643C13.2117 12.1218 13.421 11.9125 13.421 11.6651V8.08753C13.421 7.84015 13.2117 7.63083 12.9643 7.63083H7.1603C6.89389 7.63083 6.66554 7.40247 6.66554 7.13606V5.08088C6.66554 4.79544 6.87486 4.58611 7.1603 4.58611Z" fill="white"/>
<path d="M94.8101 0.019043H76.8272C76.5799 0.019043 76.3705 0.228366 76.3705 0.475749V19.5433C76.3705 19.7907 76.5799 20 76.8272 20H82.7644C83.0118 20 83.2211 19.7907 83.2211 19.5433V13.2445C83.2211 13.1113 83.3163 13.0162 83.4495 13.0162H84.3058H94.8291C99.3962 13.0162 102.86 10.6375 102.86 6.43197C102.86 2.07422 99.3962 0.019043 94.8101 0.019043ZM93.9537 8.52521H83.6778C83.4305 8.52521 83.2211 8.31588 83.2211 8.0685V5.17603C83.2211 4.92864 83.4305 4.71932 83.6778 4.71932H93.8015C95.2478 4.71932 96.1992 5.42341 96.1992 6.56518C96.1992 7.85918 95.3048 8.52521 93.9537 8.52521Z" fill="white"/>
</svg>
