<svg width="137" height="20" viewBox="0 0 137 20" fill="none" xmlns="http://www.w3.org/2000/svg">
<path d="M36.1434 12.6165C36.0863 12.5594 36.1244 12.4453 36.2195 12.4453H36.6001H36.6191C39.8732 12.1218 42.5944 10.0095 42.5944 6.27972C42.5944 1.97906 39.131 0 35.1539 0H16.5621C16.3147 0 16.1054 0.209323 16.1054 0.456706V19.5242C16.1054 19.7716 16.3147 19.9809 16.5621 19.9809H22.4993C22.7467 19.9809 22.956 19.7716 22.956 19.5242V13.4348C22.956 13.1874 23.1653 12.9781 23.4127 12.9781H27.2757C27.8085 12.9781 28.3223 13.2064 28.6839 13.6061L34.1834 19.8097C34.2976 19.8667 34.4117 19.9048 34.5259 19.9619H42.366C42.7657 19.9619 42.975 19.4862 42.6895 19.2007L36.1434 12.6165ZM33.6696 8.52519H23.3937C23.1463 8.52519 22.937 8.31587 22.937 8.06849V5.17601C22.937 4.92863 23.1463 4.7193 23.3937 4.7193H33.5173C34.9636 4.7193 35.915 5.4234 35.915 6.56516C35.915 7.85917 35.0397 8.52519 33.6696 8.52519Z" fill="#121212"/>
<path d="M111.195 0.019043H105.258C105.01 0.019043 104.801 0.228366 104.801 0.475749V13.1303C104.801 13.3777 105.01 13.587 105.258 13.587H111.195C111.442 13.587 111.652 13.3777 111.652 13.1303V0.475749C111.633 0.228366 111.442 0.019043 111.195 0.019043Z" fill="#121212"/>
<path d="M111.195 16.2703H105.258C105.01 16.2703 104.801 16.4796 104.801 16.727V19.5433C104.801 19.7907 105.01 20 105.258 20H111.195C111.442 20 111.652 19.7907 111.652 19.5433V16.727C111.633 16.4796 111.442 16.2703 111.195 16.2703Z" fill="#121212"/>
<path d="M135.629 19.3913L127.998 9.28663C127.827 9.05828 127.846 8.75381 128.036 8.54448L135.248 0.628226C135.458 0.399873 135.286 0.0383177 134.982 0.0383177H128.74C128.569 0.0383177 128.417 0.114436 128.303 0.228612L121.338 7.87845C121.319 7.89748 121.281 7.91651 121.243 7.91651H120.995C120.938 7.91651 120.881 7.85942 120.881 7.80233V0.437932C120.881 0.209578 120.691 0.0192871 120.463 0.0192871H114.754C114.525 0.0192871 114.335 0.209578 114.335 0.437932V19.5435C114.335 19.7528 114.506 19.9241 114.716 19.9241H120.482C120.691 19.9241 120.862 19.7528 120.862 19.5435V15.985C120.862 15.8328 120.919 15.6996 121.014 15.5854L123.545 12.8832C123.545 12.8832 123.564 12.8451 123.621 12.8451C123.678 12.8451 123.926 12.8451 123.964 12.8451C124.002 12.8451 124.04 12.8832 124.04 12.8832L129.14 19.6957C129.254 19.848 129.425 19.9241 129.616 19.9241H135.344C135.648 19.9241 135.8 19.6006 135.629 19.3913Z" fill="#121212"/>
<path d="M51.824 4.58611H57.628C57.8754 4.58611 58.0847 4.37679 58.0847 4.12941V0.475749C58.0847 0.228366 57.8754 0.019043 57.628 0.019043H45.6204C45.373 0.019043 45.1637 0.228366 45.1637 0.475749V19.5433C45.1637 19.7907 45.373 20 45.6204 20H57.628C57.8754 20 58.0847 19.7907 58.0847 19.5433V15.8896C58.0847 15.6422 57.8754 15.4329 57.628 15.4329H51.7859C51.5386 15.4329 51.3292 15.2236 51.3292 14.9762V12.5975C51.3292 12.3311 51.5576 12.1027 51.824 12.1027H57.628C57.8754 12.1027 58.0847 11.8934 58.0847 11.646V8.0685C58.0847 7.82112 57.8754 7.6118 57.628 7.6118H51.824C51.5576 7.6118 51.3292 7.38344 51.3292 7.11703V5.06185C51.3292 4.79544 51.5576 4.58611 51.824 4.58611Z" fill="#121212"/>
<path d="M67.4281 4.58611H73.2321C73.4795 4.58611 73.6888 4.37679 73.6888 4.12941V0.475749C73.6888 0.228366 73.4795 0.019043 73.2321 0.019043H61.2245C60.9771 0.019043 60.7678 0.228366 60.7678 0.475749V19.5433C60.7678 19.7907 60.9771 20 61.2245 20H73.2321C73.4795 20 73.6888 19.7907 73.6888 19.5433V15.8896C73.6888 15.6422 73.4795 15.4329 73.2321 15.4329H67.3901C67.1427 15.4329 66.9334 15.2236 66.9334 14.9762V12.5975C66.9334 12.3311 67.1617 12.1027 67.4281 12.1027H73.2321C73.4795 12.1027 73.6888 11.8934 73.6888 11.646V8.0685C73.6888 7.82112 73.4795 7.6118 73.2321 7.6118H67.4281C67.1617 7.6118 66.9334 7.38344 66.9334 7.11703V5.06185C66.9334 4.79544 67.1617 4.58611 67.4281 4.58611Z" fill="#121212"/>
<path d="M7.16165 4.58611H12.9656C13.213 4.58611 13.4223 4.37679 13.4223 4.12941V0.475749C13.4223 0.228366 13.213 0.019043 12.9656 0.019043H0.958054C0.710671 0.019043 0.501343 0.228366 0.501343 0.475749V19.5433C0.501343 19.7907 0.710671 20 0.958054 20H6.21017C6.45756 20 6.66689 19.7907 6.66689 19.5433V12.6165C6.66689 12.3501 6.89523 12.1218 7.16165 12.1218H12.9656C13.213 12.1218 13.4223 11.9125 13.4223 11.6651V8.08753C13.4223 7.84015 13.213 7.63083 12.9656 7.63083H7.16165C6.89523 7.63083 6.66689 7.40247 6.66689 7.13606V5.08088C6.66689 4.79544 6.87621 4.58611 7.16165 4.58611Z" fill="#121212"/>
<path d="M94.8114 0.019043H76.8286C76.5812 0.019043 76.3719 0.228366 76.3719 0.475749V19.5433C76.3719 19.7907 76.5812 20 76.8286 20H82.7658C83.0132 20 83.2225 19.7907 83.2225 19.5433V13.2445C83.2225 13.1113 83.3176 13.0162 83.4508 13.0162H84.3072H94.8304C99.3975 13.0162 102.861 10.6375 102.861 6.43197C102.861 2.07422 99.3975 0.019043 94.8114 0.019043ZM93.9551 8.52521H83.6792C83.4318 8.52521 83.2225 8.31588 83.2225 8.0685V5.17603C83.2225 4.92864 83.4318 4.71932 83.6792 4.71932H93.8029C95.2491 4.71932 96.2006 5.42341 96.2006 6.56518C96.2006 7.85918 95.3062 8.52521 93.9551 8.52521Z" fill="#121212"/>
</svg>
