<svg width="73" height="72" viewBox="0 0 73 72" fill="none" xmlns="http://www.w3.org/2000/svg">
<g clip-path="url(#clip0_1_14633)">
<rect width="72" height="72" transform="matrix(-1 -8.74228e-08 -8.74228e-08 1 72.5 0)" fill="#FF7D6A"/>
<rect width="36" height="18" transform="matrix(-1 -8.74228e-08 -8.74228e-08 1 54.5 27)" fill="#FAF6E7"/>
<path d="M54.5 27C54.5 17.0417 46.3844 9 36.4792 9C26.574 9 18.5 17.0833 18.5 27L54.5 27Z" fill="#FAF6E7"/>
<rect x="36.5" y="45" width="27" height="27" fill="#22244E"/>
<path d="M36.5 72V45H9.5V72H36.5Z" fill="#336AEA"/>
<path d="M63.5 54V45H45.5V54H63.5Z" fill="#336AEA"/>
<path fill-rule="evenodd" clip-rule="evenodd" d="M36.5 45L45.5 45L45.5 54L36.5 45Z" fill="#336AEA"/>
<path fill-rule="evenodd" clip-rule="evenodd" d="M72.5 54L63.5 54L63.5 45L72.5 54Z" fill="#336AEA"/>
<path fill-rule="evenodd" clip-rule="evenodd" d="M9.5 45L9.5 54H0.5L9.5 45Z" fill="#22244E"/>
<path d="M0.5 18C0.5 27.9468 8.55317 36 18.5 36L18.5 27C13.5266 27 9.5 22.9526 9.5 18L0.5 18Z" fill="#17D1C6"/>
<path d="M18.5 0C8.55319 0 0.5 8.05317 0.5 18H9.5C9.5 13.0266 13.5474 9 18.5 9V0Z" fill="#17D1C6"/>
<path d="M19.7727 7.72729L18.5 4.5L17.2273 7.72729L14 9L17.2273 10.2727L18.5 13.5L19.7727 10.2727L23 9L19.7727 7.72729Z" fill="#FAF6E7"/>
<path d="M55.7727 61.7273L54.5 58.5L53.2273 61.7273L50 63L53.2273 64.2727L54.5 67.5L55.7727 64.2727L59 63L55.7727 61.7273Z" fill="#FAF6E7"/>
<path d="M19.7727 52.7273L18.5 49.5L17.2273 52.7273L14 54L17.2273 55.2727L18.5 58.5L19.7727 55.2727L23 54L19.7727 52.7273Z" fill="#FAF6E7"/>
<path d="M60.2727 12.2273L59 9L57.7273 12.2273L54.5 13.5L57.7273 14.7727L59 18L60.2727 14.7727L63.5 13.5L60.2727 12.2273Z" fill="#FAF6E7"/>
<path d="M58.5426 41.5062L61.0862 36L55.0488 35.4511L54.5 29.4079L48.9938 31.9574L45.5 27L42.0062 31.9574L36.5 29.4079L35.957 35.4511L29.9138 36L32.4633 41.5062L27.5 45H45.5H63.5L58.5426 41.5062Z" fill="#FEB602"/>
<path d="M36.5 45C36.5 35.0532 28.4468 27 18.5 27L18.5 36C23.4734 36 27.5 40.0474 27.5 45L36.5 45Z" fill="#17D1C6"/>
</g>
<defs>
<clipPath id="clip0_1_14633">
<rect x="0.5" width="72" height="72" rx="4" fill="white"/>
</clipPath>
</defs>
</svg>
