<svg width="73" height="72" viewBox="0 0 73 72" fill="none" xmlns="http://www.w3.org/2000/svg">
<g clip-path="url(#clip0_1_14555)">
<rect x="0.5" width="36" height="36" fill="#648EEF"/>
<rect x="36.5" width="36" height="36" fill="#648EEF"/>
<rect x="0.5" y="18" width="36" height="54" fill="#336AEA"/>
<rect x="36.5" y="36" width="36" height="36" fill="#336AEA"/>
<path d="M0.5 18C0.5 8.04167 8.61561 0 18.5208 0C28.426 0 36.5 8.08333 36.5 18H0.5Z" fill="#336AEA"/>
<path d="M36.5 36C36.5 26.0417 44.6156 18 54.5208 18C64.426 18 72.5 26.0833 72.5 36H36.5Z" fill="#336AEA"/>
<path d="M50 15.7403L45.9503 12.4074L48.9058 8.05331L43.7137 7.46326L43.8742 2.1884L39.1891 4.52594L36.5 0L33.8109 4.52594L29.1259 2.1884L29.2863 7.46326L24.0943 8.05331L27.0497 12.4074L23 15.7403L27.8166 17.786L26.1929 22.8015L31.34 21.8937L32.6589 27L36.5 23.424L40.3411 27L41.66 21.8937L46.8071 22.8015L45.1834 17.786L50 15.7403Z" fill="#FEB602"/>
<rect x="23" y="15.75" width="13.5" height="2.25" fill="#17D1C6"/>
<rect x="36.5" y="15.75" width="13.5" height="2.25" fill="#80E6E0"/>
<path d="M9.5 31.5C9.5 38.9688 15.5625 45 23 45L23 38.25C19.2813 38.25 16.25 35.2188 16.25 31.5C16.25 27.7812 19.2812 24.75 23 24.75L23 18C15.5312 18 9.5 24.0625 9.5 31.5Z" fill="#17D1C6"/>
<path d="M63.5 31.5C63.5 24.0312 57.4375 18 50 18L50 24.75C53.7188 24.75 56.75 27.7812 56.75 31.5C56.75 35.2188 53.7188 38.25 50 38.25L50 45C57.4688 45 63.5 38.9375 63.5 31.5Z" fill="#80E6E0"/>
<path d="M36.5 18H23V45H36.5V18Z" fill="#17D1C6"/>
<path d="M50 18H36.5V45H50V18Z" fill="#80E6E0"/>
<path fill-rule="evenodd" clip-rule="evenodd" d="M18.5 72C18.5 67.0266 22.5266 63 27.5 63V72H18.5Z" fill="#17D1C6"/>
<path fill-rule="evenodd" clip-rule="evenodd" d="M45.5 63C50.4734 63 54.5 67.0266 54.5 72L45.5 72L45.5 63Z" fill="#80E6E0"/>
<rect x="27.5" y="63" width="9" height="9" fill="#17D1C6"/>
<rect x="36.5" y="63" width="9" height="9" fill="#80E6E0"/>
<path d="M10.7727 12.2273L9.5 9L8.22729 12.2273L5 13.5L8.22729 14.7727L9.5 18L10.7727 14.7727L14 13.5L10.7727 12.2273Z" fill="white"/>
<path d="M64.7727 48.2273L63.5 45L62.2273 48.2273L59 49.5L62.2273 50.7727L63.5 54L64.7727 50.7727L68 49.5L64.7727 48.2273Z" fill="white"/>
<path d="M19.7727 57.2273L18.5 54L17.2273 57.2273L14 58.5L17.2273 59.7727L18.5 63L19.7727 59.7727L23 58.5L19.7727 57.2273Z" fill="white"/>
<circle cx="36.5" cy="36" r="9" fill="white"/>
<path d="M36.5 63C34.0104 63 32 60.9711 32 58.4948C32 56.0185 34.0208 54 36.5 54L36.5 63Z" fill="#17D1C6"/>
<path d="M36.5 54C38.9896 54 41 56.0289 41 58.5052C41 60.9815 38.9792 63 36.5 63L36.5 54Z" fill="#80E6E0"/>
<path d="M36.5 45L50 45C47.3 50.481 42.2465 54 36.5 54L36.5 45Z" fill="#80E6E0"/>
<path d="M36.5 45L23 45C25.7 50.481 30.7535 54 36.5 54L36.5 45Z" fill="#17D1C6"/>
</g>
<defs>
<clipPath id="clip0_1_14555">
<rect x="0.5" width="72" height="72" rx="4" fill="white"/>
</clipPath>
</defs>
</svg>
