<svg width="72" height="72" viewBox="0 0 72 72" fill="none" xmlns="http://www.w3.org/2000/svg">
<g clip-path="url(#clip0_1_14657)">
<rect width="36" height="36" fill="#404492"/>
<rect x="36" width="36" height="36" fill="#404492"/>
<rect y="18" width="36" height="54" fill="#22244E"/>
<rect x="36" y="36" width="36" height="36" fill="#22244E"/>
<path d="M1.57361e-06 18C7.03025e-07 8.04166 8.11561 -7.09489e-07 18.0208 -1.57543e-06C27.926 -2.44137e-06 36 8.08333 36 18L1.57361e-06 18Z" fill="#22244E"/>
<path d="M36 36C36 26.0417 44.1156 18 54.0208 18C63.926 18 72 26.0833 72 36L36 36Z" fill="#22244E"/>
<path d="M9 72L16.4361 66.7593L12.6118 58.5L21.6767 57.6767L22.5 48.6118L30.7593 52.4361L36 45V72H9Z" fill="#FF7D6A"/>
<path d="M36 45L41.2407 52.4361L49.5 48.6118L50.3233 57.6767L59.3882 58.5L55.5639 66.7593L63 72L36 72L36 45Z" fill="#FF7D6A"/>
<rect x="31.5" y="36" width="4.5" height="27" fill="#17D1C6"/>
<rect x="36" y="36" width="4.5" height="27" fill="#4EDCD3"/>
<path fill-rule="evenodd" clip-rule="evenodd" d="M40.5 63C40.5 67.9734 36.4734 72 31.5 72L31.5 63L40.5 63Z" fill="#17D1C6"/>
<path d="M36 45C26.0417 45 18 36.8844 18 26.9792C18 17.074 26.0833 9 36 9L36 45Z" fill="#17D1C6"/>
<path d="M36 40.5C28.5312 40.5 22.5 34.4133 22.5 26.9844C22.5 19.5555 28.5625 13.5 36 13.5L36 40.5Z" fill="#FAF6E7"/>
<path d="M36 9C45.9583 9 54 17.1156 54 27.0208C54 36.926 45.9167 45 36 45L36 9Z" fill="#4EDCD3"/>
<path d="M36 13.5C43.4688 13.5 49.5 19.5867 49.5 27.0156C49.5 34.4445 43.4375 40.5 36 40.5L36 13.5Z" fill="white"/>
<path d="M65.5454 15.4546L63 9L60.4546 15.4546L54 18L60.4546 20.5454L63 27L65.5454 20.5454L72 18L65.5454 15.4546Z" fill="#FAF6E7"/>
<path d="M11.5454 33.4546L9 27L6.45458 33.4546L0 36L6.45458 38.5454L9 45L11.5454 38.5454L18 36L11.5454 33.4546Z" fill="#FAF6E7"/>
</g>
<defs>
<clipPath id="clip0_1_14657">
<rect width="72" height="72" rx="4" fill="white"/>
</clipPath>
</defs>
</svg>
