<svg width="11" height="11" viewBox="0 0 11 11" fill="none" xmlns="http://www.w3.org/2000/svg">
<path fill-rule="evenodd" clip-rule="evenodd" d="M9.98065 2.05029H5.87909C5.59594 2.05029 5.36639 2.27984 5.36639 2.56299V3.79208L3.91676 1.28125C3.82517 1.12262 3.65592 1.0249 3.47276 1.0249C3.28961 1.0249 3.12034 1.12262 3.02877 1.28125L0.0686909 6.4082C-0.022897 6.56683 -0.022897 6.76227 0.0686909 6.9209C0.160279 7.07953 0.32953 7.17725 0.512706 7.17725H2.99723C2.95061 7.3783 2.92596 7.58769 2.92596 7.80273C2.92596 9.32932 4.16794 10.5713 5.69452 10.5713C7.2211 10.5713 8.46307 9.32932 8.46307 7.80273C8.46307 7.58769 8.43842 7.3783 8.39181 7.17725H9.98065C10.2638 7.17725 10.4933 6.9477 10.4933 6.66455V2.56299C10.4933 2.27984 10.2638 2.05029 9.98065 2.05029ZM1.40072 6.15186L3.47277 2.56299L4.95719 5.13403C4.35619 5.30029 3.8366 5.66447 3.47341 6.15186H1.40072ZM5.69452 9.5459C4.73334 9.5459 3.95136 8.76392 3.95136 7.80273C3.95136 6.84155 4.73334 6.05957 5.69452 6.05957C6.6557 6.05957 7.43768 6.84155 7.43768 7.80273C7.43768 8.76392 6.6557 9.5459 5.69452 9.5459ZM9.46796 6.15186H7.91566C7.54441 5.65366 7.00977 5.28409 6.39178 5.12316V3.07568H9.46796V6.15186Z" fill="#5B5B5B"/>
</svg>
