<svg width="17" height="16" viewBox="0 0 17 16" fill="none" xmlns="http://www.w3.org/2000/svg">
<path fill-rule="evenodd" clip-rule="evenodd" d="M15.7086 2.36255H9.45861C9.02714 2.36255 8.67736 2.71233 8.67736 3.1438V5.01671L6.46839 1.19067C6.32883 0.948955 6.07092 0.800049 5.79183 0.800049C5.51273 0.800049 5.2548 0.948955 5.11526 1.19067L0.604672 9.00317C0.465109 9.24489 0.465109 9.54271 0.604672 9.78442C0.744234 10.0261 1.00214 10.175 1.28127 10.175H5.0672C4.99617 10.4814 4.95861 10.8005 4.95861 11.1282C4.95861 13.4544 6.85114 15.3469 9.17736 15.3469C11.5036 15.3469 13.3961 13.4544 13.3961 11.1282C13.3961 10.8005 13.3585 10.4814 13.2875 10.175H15.7086C16.1401 10.175 16.4899 9.82527 16.4899 9.3938V3.1438C16.4899 2.71233 16.1401 2.36255 15.7086 2.36255ZM2.63443 8.61255L5.79184 3.1438L8.05381 7.06158C7.138 7.31492 6.34625 7.86986 5.79281 8.61255H2.63443ZM9.17736 13.7844C7.71271 13.7844 6.52111 12.5928 6.52111 11.1282C6.52111 9.66352 7.71271 8.47192 9.17736 8.47192C10.642 8.47192 11.8336 9.66352 11.8336 11.1282C11.8336 12.5928 10.642 13.7844 9.17736 13.7844ZM14.9274 8.61255H12.562C11.9962 7.85339 11.1815 7.29024 10.2399 7.04502V3.92505H14.9274V8.61255Z" fill="#121212"/>
</svg>
