<svg width="11" height="11" viewBox="0 0 11 11" fill="none" xmlns="http://www.w3.org/2000/svg">
<path d="M8.58861 0.5H9.86288C10.2148 0.5 10.5 0.785259 10.5 1.13714V2.41141C10.5 2.76329 10.2148 3.04854 9.86288 3.04854H8.58861C8.2367 3.04854 7.95147 2.76329 7.95147 2.41141V1.13714C7.95147 0.785259 8.2367 0.5 8.58861 0.5Z" fill="#5B5B5B"/>
<path d="M9.86288 4.47573H8.58861C8.2367 4.47573 7.95147 4.76099 7.95147 5.11286V6.38714C7.95147 6.73901 8.2367 7.02427 8.58861 7.02427H9.86288C10.2148 7.02427 10.5 6.73901 10.5 6.38714V5.11286C10.5 4.76099 10.2148 4.47573 9.86288 4.47573Z" fill="#5B5B5B"/>
<path d="M0.637136 8.45146H1.91141C2.26329 8.45146 2.54854 8.73671 2.54854 9.08859V10.3629C2.54854 10.7147 2.26329 11 1.91141 11H0.637136C0.285258 11 0 10.7147 0 10.3629V9.08859C0 8.73671 0.285258 8.45146 0.637136 8.45146Z" fill="#5B5B5B"/>
<path d="M5.88712 8.45146H4.61285C4.26097 8.45146 3.97571 8.73671 3.97571 9.08859V10.3629C3.97571 10.7147 4.26097 11 4.61285 11H5.88712C6.23903 11 6.52426 10.7147 6.52426 10.3629V9.08859C6.52426 8.73671 6.23903 8.45146 5.88712 8.45146Z" fill="#5B5B5B"/>
<path d="M9.86288 8.45146H8.58861C8.2367 8.45146 7.95147 8.73671 7.95147 9.08859V10.3629C7.95147 10.7147 8.2367 11 8.58861 11H9.86288C10.2148 11 10.5 10.7147 10.5 10.3629V9.08859C10.5 8.73671 10.2148 8.45146 9.86288 8.45146Z" fill="#5B5B5B"/>
<path d="M4.61285 4.47573H5.88712C6.23903 4.47573 6.52426 4.76099 6.52426 5.11286V6.38714C6.52426 6.73901 6.23903 7.02427 5.88712 7.02427H4.61285C4.26097 7.02427 3.97571 6.73901 3.97571 6.38714V5.11286C3.97571 4.76099 4.26097 4.47573 4.61285 4.47573Z" fill="#5B5B5B"/>
<path d="M1.91141 4.47573H0.637136C0.285258 4.47573 0 4.76099 0 5.11286V6.38714C0 6.73901 0.285258 7.02427 0.637136 7.02427H1.91141C2.26329 7.02427 2.54854 6.73901 2.54854 6.38714V5.11286C2.54854 4.76099 2.26329 4.47573 1.91141 4.47573Z" fill="#5B5B5B"/>
<path d="M5.88712 0.5H4.61285C4.26097 0.5 3.97571 0.785259 3.97571 1.13714V2.41141C3.97571 2.76329 4.26097 3.04854 4.61285 3.04854H5.88712C6.23903 3.04854 6.52426 2.76329 6.52426 2.41141V1.13714C6.52426 0.785259 6.23903 0.5 5.88712 0.5Z" fill="#5B5B5B"/>
<path d="M0.637136 0.5H1.91141C2.26329 0.5 2.54854 0.785259 2.54854 1.13714V2.41141C2.54854 2.76329 2.26329 3.04854 1.91141 3.04854H0.637136C0.285258 3.04854 0 2.76329 0 2.41141V1.13714C0 0.785259 0.285258 0.5 0.637136 0.5Z" fill="#5B5B5B"/>
</svg>
