<svg width="11" height="11" viewBox="0 0 11 11" fill="none" xmlns="http://www.w3.org/2000/svg">
<g clip-path="url(#clip0_1_41885)">
<path d="M8.03906 3.35059C8.03906 3.91689 7.57998 4.37598 7.01367 4.37598C6.44736 4.37598 5.98828 3.91689 5.98828 3.35059C5.98828 2.78428 6.44736 2.3252 7.01367 2.3252C7.57998 2.3252 8.03906 2.78428 8.03906 3.35059Z" fill="#5B5B5B"/>
<path fill-rule="evenodd" clip-rule="evenodd" d="M1.53809 0.5H8.96191C9.69609 0.5 10.2949 1.09883 10.2949 1.83301V7.18555C10.2949 7.91973 9.69609 8.51855 8.96191 8.51855H5.7627V9.43115H7.0875C7.37051 9.43115 7.6002 9.66084 7.6002 9.94385C7.6002 10.2269 7.37051 10.4565 7.0875 10.4565H3.30381C3.0208 10.4565 2.79111 10.2269 2.79111 9.94385C2.79111 9.66084 3.0208 9.43115 3.30381 9.43115H4.7373V8.51855H1.53809C0.810059 8.51855 0.219434 7.93408 0.205078 7.21016V1.83301C0.205078 1.09883 0.803906 0.5 1.53809 0.5ZM8.96191 1.52539H1.53809C1.36787 1.52539 1.23047 1.66279 1.23047 1.83301V5.94688L3.14385 4.0335C3.34482 3.83252 3.66885 3.83252 3.86982 4.0335L6.27539 6.43906L6.9583 5.7582C7.15928 5.55723 7.4833 5.55723 7.68428 5.7582L9.24082 7.31475C9.25928 7.27578 9.26953 7.23066 9.26953 7.18555V1.83301C9.26953 1.66279 9.13213 1.52539 8.96191 1.52539Z" fill="#5B5B5B"/>
</g>
<defs>
<clipPath id="clip0_1_41885">
<rect width="10.5" height="10.5" fill="white" transform="translate(0 0.5)"/>
</clipPath>
</defs>
</svg>
