<svg width="16" height="16" viewBox="0 0 16 16" fill="none" xmlns="http://www.w3.org/2000/svg">
<g clip-path="url(#clip0_23_836546)">
<path d="M14.4829 1.23349L14.0848 0.330557C13.8906 -0.110186 13.2651 -0.110186 13.0709 0.330557L12.6728 1.23349C12.617 1.35988 12.5161 1.46105 12.3895 1.5168L11.4865 1.91491C11.0458 2.10917 11.0458 2.73458 11.4865 2.92884L12.3895 3.32695C12.5159 3.3827 12.617 3.48362 12.6728 3.61026L13.0709 4.51319C13.2651 4.95394 13.8906 4.95394 14.0848 4.51319L14.4829 3.61026C14.5387 3.48387 14.6396 3.3827 14.7662 3.32695L15.6692 2.92884C16.1099 2.73458 16.1099 2.10917 15.6692 1.91491L14.7662 1.5168C14.6398 1.46105 14.5387 1.36013 14.4829 1.23349Z" fill="white"/>
<path fill-rule="evenodd" clip-rule="evenodd" d="M8.70629 3.97875L0.214102 12.4709C-0.0908984 12.7762 -0.0908984 13.2709 0.214102 13.5759L2.42379 15.7856C2.57035 15.9322 2.7691 16.0144 2.97629 16.0144C3.18348 16.0144 3.38223 15.9322 3.52879 15.7856L12.021 7.29344C12.1675 7.14687 12.2497 6.94812 12.2497 6.74094C12.2497 6.53375 12.1675 6.335 12.021 6.18844L9.81129 3.97875C9.50598 3.67375 9.01129 3.67375 8.70629 3.97875ZM8.06191 6.83313L9.25879 5.63625L10.3638 6.74125L9.16691 7.93813L8.06191 6.83313ZM8.0616 9.04313L2.97629 14.1284H2.97598L1.87129 13.0234L6.9566 7.93813L8.0616 9.04313Z" fill="white"/>
<path d="M14.2839 8.28856L14.5562 8.90604C14.5943 8.99265 14.6635 9.06167 14.7499 9.0998L15.3674 9.37205C15.6688 9.5049 15.6688 9.9326 15.3674 10.0654L14.7499 10.3377C14.6633 10.3758 14.5943 10.445 14.5562 10.5315L14.2839 11.1489C14.1511 11.4504 13.7234 11.4504 13.5905 11.1489L13.3183 10.5315C13.2801 10.4448 13.211 10.3758 13.1245 10.3377L12.507 10.0654C12.2056 9.9326 12.2056 9.5049 12.507 9.37205L13.1245 9.0998C13.2111 9.06167 13.2801 8.99248 13.3183 8.90604L13.5905 8.28856C13.7234 7.98715 14.1511 7.98715 14.2839 8.28856Z" fill="white"/>
<path d="M6.89993 1.24979L6.62768 0.632308C6.49483 0.330897 6.06712 0.330897 5.93428 0.632308L5.66202 1.24979C5.62389 1.33623 5.55488 1.40542 5.46827 1.44355L4.85078 1.7158C4.54937 1.84865 4.54937 2.27635 4.85078 2.4092L5.46827 2.68145C5.55471 2.71958 5.62389 2.78859 5.66202 2.8752L5.93428 3.49269C6.06712 3.7941 6.49483 3.7941 6.62768 3.49269L6.89993 2.8752C6.93806 2.78877 7.00707 2.71958 7.09368 2.68145L7.71117 2.4092C8.01258 2.27635 8.01258 1.84865 7.71117 1.7158L7.09368 1.44355C7.00724 1.40542 6.93806 1.33641 6.89993 1.24979Z" fill="white"/>
</g>
<defs>
<clipPath id="clip0_23_836546">
<rect width="16" height="16" fill="white"/>
</clipPath>
</defs>
</svg>
