<svg width="15" height="14" viewBox="0 0 15 14" fill="none" xmlns="http://www.w3.org/2000/svg">
<g clip-path="url(#clip0_1_41815)">
<path d="M13.3359 6.3446H9.76709C9.016 6.3446 8.40493 5.73353 8.40493 4.98244V1.41358C8.40493 0.662486 9.016 0.0514215 9.76709 0.0514215H13.3359C14.087 0.0514215 14.6981 0.662486 14.6981 1.41358V4.98244C14.6981 5.73353 14.087 6.3446 13.3359 6.3446ZM9.76709 1.41358V4.98244H13.3359V1.41358H9.76709ZM4.04602 13.9999C2.24334 13.9999 0.776839 12.5334 0.776839 10.7307C0.776839 8.92807 2.24334 7.46157 4.04602 7.46157C5.8487 7.46157 7.3152 8.92807 7.3152 10.7307C7.3152 12.5334 5.8487 13.9999 4.04602 13.9999ZM4.04602 8.82373C2.99443 8.82373 2.139 9.67916 2.139 10.7307C2.139 11.7823 2.99443 12.6378 4.04602 12.6378C5.09761 12.6378 5.95304 11.7823 5.95304 10.7307C5.95304 9.67916 5.09761 8.82373 4.04602 8.82373ZM5.47656 6.33424C5.93316 6.57426 6.46685 6.18659 6.37967 5.6785L6.1146 4.13327L7.23783 3.03891C7.60725 2.67903 7.40347 2.05189 6.89293 1.97779L5.34062 1.75249L4.64646 0.346738C4.41816 -0.115579 3.75833 -0.115579 3.53004 0.346738L2.83588 1.75249L1.28356 1.97779C0.773025 2.05189 0.569246 2.67903 0.938663 3.03891L2.0619 4.13327L1.79682 5.6785C1.70965 6.18659 2.24334 6.57426 2.69994 6.33424L4.08852 5.60467L5.47711 6.33424H5.47656ZM14.202 8.98609C13.5405 8.32463 12.4677 8.32463 11.8062 8.98609L11.3584 9.43397L10.9105 8.98609C10.249 8.32463 9.17619 8.32463 8.51472 8.98609C7.85326 9.64756 7.85326 10.7204 8.51472 11.3819L8.9626 11.8297L10.9418 13.809C11.172 14.0392 11.545 14.0392 11.7752 13.809L13.7544 11.8297L14.2023 11.3819C14.8637 10.7204 14.8637 9.64756 14.2023 8.98609H14.202Z" fill="#5B5B5B"/>
</g>
<defs>
<clipPath id="clip0_1_41815">
<rect width="14" height="14" fill="white" transform="translate(0.75)"/>
</clipPath>
</defs>
</svg>
