<svg width="17" height="16" viewBox="0 0 17 16" fill="none" xmlns="http://www.w3.org/2000/svg">
<path fill-rule="evenodd" clip-rule="evenodd" d="M10.154 7.99992V7.99992L16.1417 2.01222C16.5985 1.55547 16.5985 0.814935 16.1417 0.358186C15.6849 -0.0985622 14.9445 -0.0985622 14.4877 0.358186L8.50001 6.34584L2.51231 0.358186C2.05552 -0.0985622 1.31503 -0.0985622 0.858278 0.358186C0.401529 0.814935 0.401529 1.55547 0.858278 2.01222L6.84593 7.99987V7.99987L0.858278 13.9876C0.401529 14.4443 0.401529 15.1849 0.858278 15.6416C1.31507 16.0984 2.05556 16.0984 2.51231 15.6416L8.49996 9.65395L14.4877 15.6416C14.9445 16.0984 15.6849 16.0984 16.1417 15.6416C16.5984 15.1849 16.5984 14.4444 16.1417 13.9876L10.154 7.99992Z" fill="#121212"/>
</svg>
