<svg width="17" height="16" viewBox="0 0 17 16" fill="none" xmlns="http://www.w3.org/2000/svg">
<path fill-rule="evenodd" clip-rule="evenodd" d="M10.2533 7.98551V7.98551V7.98551V7.98551V7.98551L12.9049 5.33386C13.3931 4.84571 13.3931 4.05426 12.9049 3.56611C12.4167 3.07796 11.6253 3.07796 11.1372 3.56611L8.48552 6.21771L5.83387 3.56606C5.34572 3.07791 4.55427 3.07791 4.06612 3.56606C3.57797 4.05421 3.57797 4.84566 4.06612 5.33381L6.71782 7.98551V7.98551V7.98551V7.98551V7.98551L4.06612 10.6372C3.57797 11.1254 3.57797 11.9168 4.06612 12.405C4.55427 12.8931 5.34572 12.8931 5.83387 12.405L8.48552 9.75331L11.1372 12.405C11.6253 12.8931 12.4168 12.8931 12.9049 12.405C13.3931 11.9168 13.3931 11.1254 12.9049 10.6372L10.2533 7.98551Z" fill="#5B5B5B"/>
</svg>
