<svg width="14" height="14" viewBox="0 0 14 14" fill="none" xmlns="http://www.w3.org/2000/svg">
<path fill-rule="evenodd" clip-rule="evenodd" d="M8.53411 6.98742V6.98742V6.98742V6.98742V6.98742L10.8543 4.66722C11.2814 4.24009 11.2814 3.54757 10.8543 3.12044C10.4271 2.69331 9.73461 2.69331 9.30752 3.12044L6.98733 5.44059L4.66713 3.1204C4.24 2.69327 3.54748 2.69327 3.12035 3.1204C2.69322 3.54753 2.69322 4.24005 3.12035 4.66718L5.44059 6.98742V6.98742V6.98742V6.98742V6.98742L3.12035 9.30765C2.69322 9.73478 2.69322 10.4273 3.12035 10.8544C3.54748 11.2816 4.24 11.2816 4.66713 10.8544L6.98733 8.53424L9.30752 10.8544C9.73465 11.2816 10.4272 11.2816 10.8543 10.8544C11.2814 10.4273 11.2814 9.73478 10.8543 9.30765L8.53411 6.98742Z" fill="#C8C8C8"/>
</svg>
