<svg width="15" height="14" viewBox="0 0 15 14" fill="none" xmlns="http://www.w3.org/2000/svg">
<path d="M5.88789 9.23398C5.19062 8.90586 4.59726 8.38633 4.17617 7.73555C3.74413 7.06836 3.51718 6.29453 3.51718 5.49609C3.51718 3.21836 5.36835 1.36719 7.64609 1.36719C9.92382 1.36719 11.775 3.21836 11.775 5.49609C11.775 5.98828 11.6902 6.46953 11.5207 6.92617C11.3894 7.28164 11.5699 7.67266 11.9254 7.80391C12.2809 7.93516 12.6719 7.75469 12.8031 7.39922C13.0273 6.78945 13.1422 6.14961 13.1422 5.49336C13.1422 2.46641 10.6758 0 7.64609 0C4.6164 0 2.14999 2.46641 2.14999 5.49609C2.14999 6.55703 2.45351 7.59063 3.02773 8.47656C3.58828 9.34063 4.37304 10.0297 5.30273 10.4672C5.3957 10.5109 5.49687 10.5328 5.59531 10.5328C5.85234 10.5328 6.09843 10.3879 6.21328 10.1418C6.3746 9.8 6.22968 9.39258 5.88789 9.23398Z" fill="#5B5B5B"/>
<path fill-rule="evenodd" clip-rule="evenodd" d="M7.38632 4.86445C7.64062 4.75781 7.93593 4.81797 8.13007 5.01211L12.6937 9.57578C12.8551 9.73711 12.9262 9.96953 12.8797 10.1937C12.8332 10.418 12.6801 10.6039 12.4695 10.6914L10.8207 11.375L11.5207 13.0539C11.6656 13.4039 11.5016 13.8031 11.1516 13.948C11.0641 13.9836 10.9766 14 10.8891 14C10.6211 14 10.3668 13.8414 10.2574 13.5789L9.56015 11.8973L7.91132 12.5809C7.82656 12.6164 7.73632 12.6328 7.64882 12.6328C7.51484 12.6328 7.38359 12.5945 7.26874 12.518C7.08007 12.3895 6.96523 12.1789 6.96523 11.9492V5.49609C6.96523 5.21992 7.13203 4.97109 7.38632 4.86445ZM8.32968 7.14766V10.9266L11.0012 9.81914L8.32968 7.14766Z" fill="#5B5B5B"/>
<path d="M10.0934 5.51797C9.72968 5.62188 9.35234 5.40859 9.25117 5.04492C9.05156 4.32852 8.38984 3.82812 7.64062 3.83086C6.72187 3.83086 5.97265 4.58008 5.97265 5.49883C5.97265 5.7832 6.04648 6.06484 6.18593 6.31367C6.37187 6.6418 6.25429 7.05742 5.92617 7.24336C5.82226 7.30352 5.70742 7.33086 5.59257 7.33086C5.35468 7.33086 5.12226 7.20781 4.99648 6.98359C4.74218 6.52969 4.6082 6.01563 4.6082 5.49609C4.6082 3.82266 5.96992 2.46094 7.64335 2.46094C8.9996 2.46094 10.2 3.37148 10.5664 4.67578C10.6703 5.03945 10.457 5.4168 10.0934 5.51797Z" fill="#5B5B5B"/>
</svg>
