<svg width="17" height="16" viewBox="0 0 17 16" fill="none" xmlns="http://www.w3.org/2000/svg">
<path fill-rule="evenodd" clip-rule="evenodd" d="M14.4903 2.34312C12.9793 0.832156 10.9703 0 8.83344 0C6.69656 0 4.68756 0.832156 3.17656 2.34312C1.66559 3.85416 0.833435 5.86313 0.833435 8C0.833435 10.1369 1.66559 12.1458 3.17656 13.6569C4.68756 15.1678 6.69656 16 8.83344 16C10.9703 16 12.9793 15.1678 14.4903 13.6569C16.0013 12.1458 16.8334 10.1369 16.8334 8C16.8334 5.86313 16.0013 3.85416 14.4903 2.34312ZM15.2709 8C15.2709 9.43975 14.7958 10.7706 13.9942 11.844L13.367 11.4168C13.2373 11.3285 13.0841 11.2812 12.9272 11.2812H11.1772V10.3125C11.1772 9.19247 10.266 8.28125 9.14594 8.28125H6.52094V6.0625H7.39594C7.8274 6.0625 8.17719 5.71272 8.17719 5.28125V3.78125H10.0522C10.9462 3.78125 11.7025 3.18203 11.9417 2.36428C13.925 3.4625 15.2709 5.57687 15.2709 8ZM2.39594 8C2.39594 7.52909 2.44725 7.07 2.54369 6.62759L6.38031 10.4642V11.5313C6.38031 11.9627 6.73009 12.3125 7.16156 12.3125H8.73969V14.4363C5.23312 14.3859 2.39594 11.5183 2.39594 8Z" fill="#121212"/>
</svg>
