<svg width="16" height="16" viewBox="0 0 16 16" fill="none" xmlns="http://www.w3.org/2000/svg">
<path d="M10.2835 1.94178C10.2835 3.01246 9.41242 3.88353 8.34174 3.88353C7.27106 3.88353 6.39999 3.01246 6.39999 1.94178C6.39999 0.871098 7.27106 3.05176e-05 8.34174 3.05176e-05C9.41242 3.05176e-05 10.2835 0.871098 10.2835 1.94178Z" fill="#121212"/>
<path d="M8.34174 6.05828C7.27106 6.05828 6.39999 6.92935 6.39999 8.00003C6.39999 9.07071 7.27106 9.94178 8.34174 9.94178C9.41242 9.94178 10.2835 9.07071 10.2835 8.00003C10.2835 6.92935 9.41242 6.05828 8.34174 6.05828Z" fill="#121212"/>
<path d="M8.34174 12.1165C7.27106 12.1165 6.39999 12.9876 6.39999 14.0583C6.39999 15.129 7.27106 16 8.34174 16C9.41242 16 10.2835 15.129 10.2835 14.0583C10.2835 12.9876 9.41242 12.1165 8.34174 12.1165Z" fill="#121212"/>
</svg>
