<svg width="15" height="15" viewBox="0 0 15 15" fill="none" xmlns="http://www.w3.org/2000/svg">
<g clip-path="url(#clip0_1_14390)">
<path d="M13.7945 1.87269C13.532 1.76878 13.234 1.83714 13.0426 2.04222L10.3574 5.47386L8.08789 1.06878C7.96484 0.860968 7.74336 0.732452 7.5 0.732452C7.25664 0.732452 7.03242 0.860968 6.91211 1.06878L4.64258 5.47386L1.95742 2.04495C1.76602 1.83987 1.46797 1.77151 1.20547 1.87542C0.945703 1.97659 0.773438 2.22816 0.773438 2.5098V9.78323V10.1114V11.6153C0.773438 12.5942 1.57188 13.3926 2.55078 13.3926H12.4492C13.4281 13.3926 14.2266 12.5942 14.2266 11.6153V10.1114V9.78323V2.5098C14.2266 2.22816 14.0543 1.97659 13.7945 1.87269Z" fill="#F4980A"/>
</g>
<defs>
<clipPath id="clip0_1_14390">
<rect width="14" height="14" fill="white" transform="translate(0.5 0.500031)"/>
</clipPath>
</defs>
</svg>
