<svg width="14" height="14" viewBox="0 0 14 14" fill="none" xmlns="http://www.w3.org/2000/svg">
<path fill-rule="evenodd" clip-rule="evenodd" d="M13.7801 12.7863L10.0762 9.08242C10.8171 8.12997 11.259 6.93401 11.259 5.63665C11.259 2.53641 8.73677 0.0141602 5.63653 0.0141602C2.53629 0.0141602 0.0140381 2.53641 0.0140381 5.63665C0.0140381 8.73689 2.53629 11.2591 5.63653 11.2591C6.93389 11.2591 8.12985 10.8172 9.0823 10.0763L12.7861 13.7802C12.9234 13.9174 13.1033 13.986 13.2831 13.986C13.463 13.986 13.6428 13.9174 13.7801 13.7802C14.0545 13.5057 14.0545 13.0607 13.7801 12.7863ZM1.41964 5.63665C1.41964 3.31147 3.31133 1.41978 5.63651 1.41978C7.96169 1.41978 9.85338 3.31147 9.85338 5.63665C9.85338 7.96183 7.96169 9.85352 5.63651 9.85352C3.31133 9.85352 1.41964 7.96183 1.41964 5.63665Z" fill="white"/>
</svg>
