<svg width="11" height="11" viewBox="0 0 11 11" fill="none" xmlns="http://www.w3.org/2000/svg">
<path d="M5.61253 0.650158L7.35265 2.39031C7.55287 2.59053 7.55287 2.91516 7.35265 3.11538C7.15244 3.3156 6.82784 3.3156 6.6276 3.11538L5.76268 2.25046V8.00586C5.76268 8.28901 5.53314 8.51855 5.24999 8.51855C4.96684 8.51855 4.73729 8.28901 4.73729 8.00586V2.25046L3.87238 3.11536C3.67216 3.31558 3.34756 3.31558 3.14732 3.11536C2.9471 2.91514 2.9471 2.59053 3.14732 2.39031L4.88745 0.650158C4.98361 0.554018 5.114 0.5 5.24999 0.5C5.38598 0.5 5.51636 0.554018 5.61253 0.650158Z" fill="#5B5B5B"/>
<path d="M1.74316 10.7539H8.75684C9.71802 10.7539 10.5 9.97192 10.5 9.01074V6.2627C10.5 5.97954 10.2705 5.75 9.9873 5.75C9.70413 5.75 9.47461 5.97954 9.47461 6.2627V9.01074C9.47461 9.40652 9.15262 9.72852 8.75684 9.72852H1.74316C1.34738 9.72852 1.02539 9.40652 1.02539 9.01074V6.2627C1.02539 5.97954 0.795867 5.75 0.512695 5.75C0.229523 5.75 0 5.97954 0 6.2627V9.01074C0 9.97192 0.781983 10.7539 1.74316 10.7539Z" fill="#5B5B5B"/>
</svg>
