<svg width="17" height="16" viewBox="0 0 17 16" fill="none" xmlns="http://www.w3.org/2000/svg">
<path fill-rule="evenodd" clip-rule="evenodd" d="M16.2487 14.6128L12.0157 10.3798C12.8624 9.29133 13.3675 7.92452 13.3675 6.44182C13.3675 2.89868 10.4849 0.0161133 6.94176 0.0161133C3.39862 0.0161133 0.516052 2.89868 0.516052 6.44182C0.516052 9.98495 3.39862 12.8675 6.94176 12.8675C8.42446 12.8675 9.79127 12.3625 10.8798 11.5157L15.1127 15.7487C15.2696 15.9056 15.4752 15.984 15.6807 15.984C15.8863 15.984 16.0918 15.9056 16.2487 15.7487C16.5623 15.4351 16.5623 14.9265 16.2487 14.6128ZM2.12246 6.44182C2.12246 3.78447 4.28438 1.62254 6.94173 1.62254C9.59908 1.62254 11.761 3.78447 11.761 6.44182C11.761 9.09917 9.59908 11.2611 6.94173 11.2611C4.28438 11.2611 2.12246 9.09917 2.12246 6.44182Z" fill="white"/>
</svg>
