<svg width="17" height="16" viewBox="0 0 17 16" fill="none" xmlns="http://www.w3.org/2000/svg">
<path fill-rule="evenodd" clip-rule="evenodd" d="M7.48528 2.53165H15.6342C16.1124 2.53165 16.5 2.91929 16.5 3.39745C16.5 3.87562 16.1124 4.26325 15.6342 4.26325H7.48528C7.12784 5.27098 6.16549 5.99485 5.0368 5.99485C3.9081 5.99485 2.94571 5.27098 2.58831 4.26325H1.3658C0.887636 4.26325 0.5 3.87562 0.5 3.39745C0.5 2.91929 0.887636 2.53165 1.3658 2.53165H2.58831C2.94575 1.52393 3.9081 0.800049 5.0368 0.800049C6.16549 0.800049 7.12784 1.52393 7.48528 2.53165ZM4.17097 3.39745C4.17097 3.87485 4.55937 4.26325 5.03677 4.26325C5.51417 4.26325 5.90257 3.87485 5.90257 3.39745C5.90257 2.92005 5.51417 2.53165 5.03677 2.53165C4.55937 2.53165 4.17097 2.92005 4.17097 3.39745Z" fill="#121212"/>
<path fill-rule="evenodd" clip-rule="evenodd" d="M7.48528 12.2286H15.6342C16.1124 12.2286 16.5 12.6163 16.5 13.0944C16.5 13.5726 16.1124 13.9602 15.6342 13.9602H7.48528C7.12784 14.9679 6.16549 15.6918 5.0368 15.6918C3.9081 15.6918 2.94571 14.9679 2.58831 13.9602H1.3658C0.887636 13.9602 0.5 13.5726 0.5 13.0944C0.5 12.6163 0.887636 12.2286 1.3658 12.2286H2.58831C2.94575 11.2209 3.9081 10.497 5.0368 10.497C6.16549 10.497 7.12788 11.2209 7.48528 12.2286ZM4.17097 13.0944C4.17097 13.5718 4.55937 13.9602 5.03677 13.9602C5.51417 13.9602 5.90257 13.5718 5.90257 13.0944C5.90257 12.617 5.51417 12.2286 5.03677 12.2286C4.55937 12.2286 4.17097 12.617 4.17097 13.0944Z" fill="#121212"/>
<path fill-rule="evenodd" clip-rule="evenodd" d="M15.6342 7.38013H14.4117C14.0543 6.37241 13.0919 5.64853 11.9632 5.64853C10.8345 5.64853 9.87216 6.37241 9.51472 7.38013H1.3658C0.887636 7.38013 0.5 7.76777 0.5 8.24594C0.5 8.7241 0.887636 9.11174 1.3658 9.11174H9.51472C9.87212 10.1195 10.8345 10.8433 11.9632 10.8433C13.0919 10.8433 14.0543 10.1195 14.4117 9.11174H15.6342C16.1124 9.11174 16.5 8.7241 16.5 8.24594C16.5 7.76777 16.1124 7.38013 15.6342 7.38013ZM11.9632 9.11174C11.4858 9.11174 11.0974 8.72334 11.0974 8.24594C11.0974 7.76853 11.4858 7.38014 11.9632 7.38014C12.4406 7.38014 12.829 7.76853 12.829 8.24594C12.829 8.72334 12.4406 9.11174 11.9632 9.11174Z" fill="#121212"/>
</svg>
