<svg width="17" height="16" viewBox="0 0 17 16" fill="none" xmlns="http://www.w3.org/2000/svg">
<path d="M10.7835 1.94178C10.7835 3.01246 9.91245 3.88353 8.84177 3.88353C7.77109 3.88353 6.90002 3.01246 6.90002 1.94178C6.90002 0.871098 7.77109 3.05176e-05 8.84177 3.05176e-05C9.91245 3.05176e-05 10.7835 0.871098 10.7835 1.94178Z" fill="#121212"/>
<path d="M8.84177 6.05828C7.77109 6.05828 6.90002 6.92935 6.90002 8.00003C6.90002 9.07071 7.77109 9.94178 8.84177 9.94178C9.91245 9.94178 10.7835 9.07071 10.7835 8.00003C10.7835 6.92935 9.91245 6.05828 8.84177 6.05828Z" fill="#121212"/>
<path d="M8.84177 12.1165C7.77109 12.1165 6.90002 12.9876 6.90002 14.0583C6.90002 15.129 7.77109 16 8.84177 16C9.91245 16 10.7835 15.129 10.7835 14.0583C10.7835 12.9876 9.91245 12.1165 8.84177 12.1165Z" fill="#121212"/>
</svg>
