<svg width="128" height="22" viewBox="0 0 128 22" fill="none" xmlns="http://www.w3.org/2000/svg">
<g clip-path="url(#clip0_1_13601)">
<path d="M103.226 1.61084H98.6879C98.4753 1.61084 98.3036 1.78236 98.3036 1.99491V20.0405C98.3036 20.253 98.4753 20.4246 98.6879 20.4246H103.226C103.439 20.4246 103.611 20.253 103.611 20.0405V1.99491C103.609 1.78236 103.437 1.61084 103.226 1.61084Z" fill="white"/>
<path d="M20.1294 0.0950928V8.8895H15.2328V0.0950928H10.3641V8.8895H5.46751V0.0950928H3.28688C1.80204 0.0950928 0.598877 1.29764 0.598877 2.7817V19.2164C0.598877 20.7005 1.80204 21.9031 3.28688 21.9031H22.3119C23.7967 21.9031 24.9999 20.7005 24.9999 19.2164V2.7817C24.9999 1.29764 23.7967 0.0950928 22.3119 0.0950928H20.1294ZM5.46751 17.3427V13.7873H20.1312V17.3427H5.46751Z" fill="#FF7D6A"/>
<path d="M78.9284 20.0461L78.8594 1.9819C78.8594 1.77123 79.0291 1.60156 79.2381 1.60156L88.3635 1.61089C93.0213 1.61089 95.284 3.86868 95.284 7.63479C95.284 11.3916 92.8199 14.0129 88.3915 14.0129H84.6122C84.4033 14.0129 84.2335 14.1826 84.2335 14.3914V20.0443C84.2335 20.2531 84.0638 20.4227 83.8549 20.4227H79.3071C79.0981 20.4246 78.9284 20.255 78.9284 20.0461ZM84.629 5.41614C84.4126 5.41614 84.2335 5.59326 84.2335 5.81139V9.9653C84.2335 10.1834 84.4089 10.3587 84.6271 10.3587H87.5129C89.0369 10.3587 90.102 9.2997 90.102 7.78394C90.102 6.4136 88.9511 5.41614 87.3674 5.41614H84.629Z" fill="white"/>
<path d="M74.8222 4.86982V1.99304C74.8222 1.78236 74.6506 1.61084 74.4398 1.61084H63.2644C63.0536 1.61084 62.882 1.78236 62.882 1.99304V20.0517C62.882 20.2624 63.0536 20.4339 63.2644 20.4339H74.4398C74.6506 20.4339 74.8222 20.2624 74.8222 20.0517V17.1749C74.8222 16.9642 74.6506 16.7927 74.4398 16.7927H68.5714C68.3606 16.7927 68.189 16.6212 68.189 16.4105V13.0378C68.189 12.8271 68.3606 12.6556 68.5714 12.6556H74.4398C74.6506 12.6556 74.8222 12.4841 74.8222 12.2734V9.39661C74.8222 9.18593 74.6506 9.01439 74.4398 9.01439H68.5714C68.3606 9.01439 68.189 8.84287 68.189 8.63219V5.63236C68.189 5.42168 68.3606 5.25016 68.5714 5.25016H74.4398C74.6525 5.25203 74.8222 5.0805 74.8222 4.86982Z" fill="white"/>
<path d="M120.179 9.32762L126.931 1.98745C127.064 1.84389 126.961 1.6127 126.767 1.6127H121.048L114.148 9.18592C114.107 9.23067 113.982 9.34999 113.778 9.34999H113.53C113.23 9.34999 113.038 9.19898 113.038 8.86152L113.01 1.98185C113.01 1.77677 112.842 1.61084 112.637 1.61084H107.72C107.515 1.61084 107.347 1.77677 107.347 1.98372L107.35 20.0517C107.35 20.2568 107.516 20.4246 107.723 20.4246L112.667 20.4208C112.872 20.4208 113.038 20.2549 113.038 20.048V16.9213C113.038 16.6808 113.129 16.4478 113.295 16.2725L115.754 13.6512C115.823 13.5486 116.013 13.4535 116.136 13.4535H116.474C116.591 13.4535 116.767 13.5412 116.838 13.6363L122.029 20.4246H127.142C127.327 20.4246 127.431 20.2139 127.321 20.0666L120.123 10.5413C119.848 10.1759 119.871 9.66508 120.179 9.32762Z" fill="white"/>
<path d="M59.5676 1.61084L54.9751 1.6127C54.8035 1.6127 54.6542 1.73389 54.6188 1.90169L51.9979 14.2608C51.9662 14.4063 51.7592 14.4063 51.7293 14.2608L49.0917 1.77677C49.0264 1.67609 48.9126 1.61084 48.7876 1.61084L43.3612 1.6127C43.1877 1.6127 43.0404 1.73389 43.0031 1.90169L40.3785 14.2571C40.3468 14.4025 40.1397 14.4025 40.1099 14.2571L37.5282 1.90169C37.4927 1.73203 37.3435 1.61084 37.17 1.61084L32.3499 1.61457C32.1671 1.61457 32.0328 1.78982 32.0813 1.96694L37.0656 20.1561C37.1085 20.3146 37.254 20.4246 37.4181 20.4246L42.9229 20.4227C43.0851 20.4227 43.2288 20.3146 43.2735 20.1598L45.8272 11.4027C45.8664 11.2703 46.053 11.2703 46.0921 11.4027L48.6794 20.1636C48.7261 20.3183 48.8678 20.4264 49.0301 20.4264H54.5311C54.6953 20.4264 54.8408 20.3164 54.8837 20.1561L59.8362 1.96321C59.8829 1.78423 59.7504 1.61084 59.5676 1.61084Z" fill="white"/>
</g>
<defs>
<clipPath id="clip0_1_13601">
<rect width="127.032" height="22" fill="white" transform="translate(0.5)"/>
</clipPath>
</defs>
</svg>
